<?xml version="1.0" encoding="utf-8"?>
<!-- Generator: Adobe Illustrator 23.0.5, SVG Export Plug-In . SVG Version: 6.00 Build 0)  -->
<svg version="1.1" id="a6ee8617-cc99-4eb9-a93b-e1a7e83c9724"
	 xmlns="http://www.w3.org/2000/svg" xmlns:xlink="http://www.w3.org/1999/xlink" x="0px" y="0px" viewBox="0 0 1088 826.3"
	 style="enable-background:new 0 0 1088 826.3;" xml:space="preserve">
<style type="text/css">
	.st0{fill:#F2F2F2;}
	.st1{opacity:0.1;enable-background:new    ;}
	.st2{fill:#3F3D56;}
	.st3{fill:#1E3659;}
	.st4{fill:#2B4B80;}
	.st5{fill:#A8A8A8;}
	.st6{opacity:0.2;enable-background:new    ;}
	.st7{fill:#FFB9B9;}
	.st8{fill:#D0CDE1;}
	.st9{fill:#2F2E41;}
	.st10{fill:#A0616A;}
	.st11{fill:#FF5C97;}
</style>
<title>code typing</title>
<path class="st0" d="M935,329.4C887.2,141.3,721.9,5.6,528,0.2C425.5-2.7,317.6,31.3,239,150.3C98.6,363,247.6,510,351.5,579.9
	c50.2,33.8,95.4,74.5,134.4,120.8C556.1,784,691.2,887.5,852,725.3C968.6,607.7,966.8,454.6,935,329.4z"/>
<polygon class="st1" points="719.6,507.4 818,409.3 719.6,311.2 749.6,281.3 878,409.3 749.6,537.3 719.6,507.4 "/>
<polygon class="st1" points="384.4,506.4 285.9,408.3 384.3,310.2 354.3,280.3 226,408.3 354.4,536.3 "/>
<path class="st2" d="M1088,752.3c0,16.6-243.6,74-544,74S0,768.9,0,752.3s243.6,14,544,14S1088,735.7,1088,752.3z"/>
<path class="st3" d="M1088,752.3c0,16.6-243.6,74-544,74S0,768.9,0,752.3s243.6,14,544,14S1088,735.7,1088,752.3z"/>
<ellipse class="st4" cx="544" cy="752.3" rx="544" ry="30"/>
<path class="st2" d="M632.7,608c0,64,40.2,115.8,89.8,115.8"/>
<path class="st4" d="M722.5,723.8c0-64.7,44.8-117.1,100.2-117.1"/>
<path class="st4" d="M665.2,613.8c0,60.8,25.6,110,57.3,110"/>
<path class="st2" d="M722.5,723.8c0-82.7,51.8-149.7,115.8-149.7"/>
<path class="st5" d="M703.6,724.6c0,0,12.7-0.4,16.6-3.1s19.6-6,20.5-1.6s19.1,21.8,4.8,21.9s-33.4-2.2-37.2-4.6
	S703.6,724.6,703.6,724.6z"/>
<path class="st6" d="M745.7,740.2c-14.4,0.1-33.4-2.2-37.2-4.6c-2.9-1.8-4.1-8.2-4.5-11.1c-0.3,0-0.4,0-0.4,0s0.8,10.3,4.6,12.6
	s22.9,4.7,37.2,4.6c4.1,0,5.6-1.5,5.5-3.7C750.4,739.4,748.8,740.2,745.7,740.2z"/>
<path class="st7" d="M865.5,382.9c0,0-30.8-23.4-33.1-14.8s22.6,28,22.6,28L865.5,382.9z"/>
<path class="st1" d="M865.5,382.9c0,0-30.8-23.4-33.1-14.8s22.6,28,22.6,28L865.5,382.9z"/>
<path class="st8" d="M967.2,308.8c0,0-36.6,65.4-37.4,74.8s-0.8,10.1-3.9,9.3s-46-5.5-49.9-3.9s-11.7-9.3-11.7-9.3
	s-14.8,14.8-11.7,17.9s12.5,4.7,14,8.6s3.9,7.8,10.9,7s54.5,12.5,60.8,10.1s7.8-6.2,10.9-6.2s9.3-3.1,9.3-3.9s21.8-42.1,21.8-42.1
	S1006.1,315.1,967.2,308.8z"/>
<path class="st1" d="M967.2,308.8c0,0-36.6,65.4-37.4,74.8s-0.8,10.1-3.9,9.3s-46-5.5-49.9-3.9s-11.7-9.3-11.7-9.3
	s-14.8,14.8-11.7,17.9s12.5,4.7,14,8.6s3.9,7.8,10.9,7s54.5,12.5,60.8,10.1s7.8-6.2,10.9-6.2s9.3-3.1,9.3-3.9s21.8-42.1,21.8-42.1
	S1006.1,315.1,967.2,308.8z"/>
<path class="st9" d="M914.1,265.7c-0.3,4.1-0.3,8.3,0.2,12.4c1.2,8.9,5.3,18.3,1.4,26.6c-1.4,3-3.8,5.7-5.1,8.7
	c-2.8,6.5-0.3,13.7-0.6,20.6c-0.5,8.9-6.2,17.5-14.8,22.4c14.8,0.5,28.8-6.8,38.1-16.8s14.5-22.3,18.3-34.6c2-5.8,3.3-11.8,3.8-17.9
	c0.3-3.5-0.1-7-1.2-10.4c-1.4-3.3-3.2-6.3-5.3-9.1c-2.3-3.3-4.7-6.6-8.1-9c-4.2-3-12.4-6-18-5.6
	C915.8,253.6,914.3,260.9,914.1,265.7z"/>
<path class="st7" d="M936.8,290.1c0,0,8.6,30.4,1.6,38.9s42.1-3.9,42.1-3.9s-24.1-24.1-12.5-39.7L936.8,290.1z"/>
<path class="st1" d="M936.8,290.1c0,0,8.6,30.4,1.6,38.9s42.1-3.9,42.1-3.9s-24.1-24.1-12.5-39.7L936.8,290.1z"/>
<polygon class="st4" points="719.6,488.4 818,390.3 719.6,292.2 749.6,262.3 878,390.3 749.6,518.3 719.6,488.4 "/>
<polygon class="st7" points="908.7,695.2 908.7,717.8 920.4,731.8 930.6,727.2 927.4,694.4 "/>
<path class="st9" d="M913.4,716.3c0,0-3.1-10.9-8.6-3.1s-10.9,24.9-14,25.7s-24.9,24.9-3.1,24.9s28.8-10.1,28.8-10.1
	s21.8-8.6,21.8-10.1s-3.1-30.4-4.7-30.4s-2.3,5.5-6.2,5.5S913.4,716.3,913.4,716.3z"/>
<polygon class="st7" points="960.9,699.1 960.2,720.1 978.9,727.9 978.9,697.6 "/>
<path class="st9" d="M981.2,720.1c0,0-10.1-10.9-15.6-8.6c-2.7,1.1-5.3,2.4-7.8,3.9c0,0-3.1,10.1-4.7,18.7s-2.3,12.5-3.9,15.6
	s-3.1,14.8,12.5,16.4c15.6,1.6,20.3-7,20.3-7l3.9-20.3C985.9,738.8,984.3,720.1,981.2,720.1z"/>
<path class="st9" d="M918.9,474.8c0,0-22.6,50.6-19.5,96.6c0,0-7.8,17.9-3.1,46s10.9,84.1,10.9,84.1s21,2.3,22.6-1.6
	c0,0,1.6-38.9,3.1-40.5s-0.8-37.4-3.1-44.4s21.8-76.3,21.8-76.3l-6.2-86.5L918.9,474.8z"/>
<path class="st1" d="M918.9,474.8c0,0-22.6,50.6-19.5,96.6c0,0-7.8,17.9-3.1,46s10.9,84.1,10.9,84.1s21,2.3,22.6-1.6
	c0,0,1.6-38.9,3.1-40.5s-0.8-37.4-3.1-44.4s21.8-76.3,21.8-76.3l-6.2-86.5L918.9,474.8z"/>
<path class="st9" d="M912.6,471.7l14.8,31.9c0,0,7,72.4,10.9,81.8c0,0,1.6,26.5,8.6,35.1s12.5,84.1,12.5,84.1s19.5,5.5,21,0
	s6.2-42.8,6.2-42.8s1.6-31.9-7-53s10.1-96.6,10.1-96.6s19.5-36.6-8.6-66.2L912.6,471.7z"/>
<circle class="st7" cx="953.9" cy="267.6" r="31.9"/>
<path class="st8" d="M983.5,315.9c0,0-33.5,0-38.2,3.9c-2.4,2.3-6.2,2.3-8.6,0c0,0-11.7,0.8-14.8,10.1s-12.5,21.8-12.5,21.8
	s-14,10.1-6.2,36.6s1.6,69.3,1.6,69.3s-6.2,9.3,0,13.2s8.6,5.5,7.8,8.6s70.9-25.7,70.9-31.2s-1.6-10.1,0-12.5s3.1-6.2,1.6-10.1
	s1.6-4.7,0.8-8.6s3.9-32.7,7-45.2S995.2,316.6,983.5,315.9z"/>
<path class="st7" d="M865.5,392.2c0,0-30.8-23.4-33.1-14.8s22.6,28,22.6,28L865.5,392.2z"/>
<path class="st8" d="M967.2,319.7c0,0-36.6,65.4-37.4,74.8s-0.8,10.1-3.9,9.3s-46-5.5-49.9-3.9s-11.7-9.3-11.7-9.3
	s-14.8,14.8-11.7,17.9s12.5,4.7,14,8.6s3.9,7.8,10.9,7s54.5,12.5,60.8,10.1s7.8-6.2,10.9-6.2s9.3-3.1,9.3-3.9s21.8-42.1,21.8-42.1
	S1006.1,326,967.2,319.7z"/>
<path class="st9" d="M938.1,288c-0.4-3.2-2.1-6-2.9-9.1c-1.3-5-0.5-10.3,2.2-14.7c4.6-7.4,13.6-10.7,19.8-16.7
	c0.1,3.1,2.3,5.7,4.6,7.7c2.4,2,5.1,3.6,7.1,5.9c1.9,2.5,3.3,5.3,4.1,8.3c1.2,3.5,1.8,7.2,1.6,10.9c-0.2,3.7-1.9,7.3-4.7,9.7
	c-2.3,1.8-5.6,2.9-6.7,5.7c-0.4,1.4-0.6,2.8-0.4,4.3c0.5,8.6,1,17.3-1,25.6s-7,16.4-14.7,20.1c6.4,0.5,12.9,0.9,19-0.7
	c6.2-1.6,12.1-5.7,14.2-11.7c1.1-3,1.2-6.3,2.6-9c3.8-7,14.2-7.3,19.3-13.4c2.1-2.4,3-5.6,3.8-8.7c4.3-18.3,1.3-37.7-5.3-55.2
	c-2.3-6.1-5.1-12.2-10-16.4c-4.1-3.6-9.4-5.6-14.7-7.3c-7.6-2.5-15.5-4.5-23.5-4.8c-3.5-0.2-7,0.2-10.3,1.2
	c-3.3,1.2-6.4,2.9-9.1,5.2c-12.6,9.8-21.1,25.4-20,41.3c0.7,9.6,4.8,18.7,10,26.8c1.8,2.8,6.2,8.9,10.2,7.1
	C937,298.3,938.6,291.4,938.1,288z"/>
<ellipse class="st9" cx="206.2" cy="211.8" rx="33.7" ry="26.3"/>
<path class="st10" d="M211.9,392.6c0,0,30.3,2,35.7-2s28.3,5.4,30.3,10.8s-32.3,6.1-37.7,6.1s-31,8.1-31,8.1L211.9,392.6z"/>
<path class="st9" d="M149.6,706.1c0,0-14.1,35.6-6.8,39.9s84.7,1.2,84.7,1.2s12.9-8-1.8-13.5c0,0-12.3-0.6-20.3-5.5
	s-17.2-14.1-17.2-14.1s-0.6-13.5-5.5-10.4c-3,2-5,5.1-5.5,8.6L149.6,706.1z"/>
<path class="st1" d="M149.6,706.1c0,0-14.1,35.6-6.8,39.9s84.7,1.2,84.7,1.2s12.9-8-1.8-13.5c0,0-12.3-0.6-20.3-5.5
	s-17.2-14.1-17.2-14.1s-0.6-13.5-5.5-10.4c-3,2-5,5.1-5.5,8.6L149.6,706.1z"/>
<polygon class="st4" points="384.4,487.4 285.9,389.3 384.3,291.2 354.3,261.3 226,389.3 354.4,517.3 "/>
<path class="st9" d="M127.8,717c0,0-15.5,39-7.4,43.8s92.9,1.3,92.9,1.3s14.1-8.8-2-14.8c0,0-13.5-0.7-22.2-6.1
	s-18.8-15.5-18.8-15.5s-0.7-14.8-6.1-11.4c-3.3,2.1-5.5,5.6-6.1,9.4L127.8,717z"/>
<path class="st9" d="M207.2,469.3l-9.4,84.8c0,0-3.4,40.4-13.5,49.1c0,0,0,12.8-3.4,16.8l-4.7,53.2c0,0,6.7,19.5,6.1,22.9
	s2.7,14.1,2,15.5s-32.3,0-32.3,0l6.7-108.4l20.9-150.8L207.2,469.3z"/>
<path class="st1" d="M207.2,469.3l-9.4,84.8c0,0-3.4,40.4-13.5,49.1c0,0,0,12.8-3.4,16.8l-4.7,53.2c0,0,6.7,19.5,6.1,22.9
	s2.7,14.1,2,15.5s-32.3,0-32.3,0l6.7-108.4l20.9-150.8L207.2,469.3z"/>
<path class="st9" d="M190.4,466.6c0,0-7.4,69.3-10.8,84.1c-2.1,9.8-3.5,19.7-4,29.6c0,0-0.7,21.5-6.7,27.6
	c-3.6,3.5-5.5,8.4-5.4,13.5c0,0-6.1,68-2.7,76.1s6.7,14.8,3.4,20.2s-40.4,5.4-40.4,1.3s0-7.4-2-9.4s0-14.8,0-14.8
	s-8.1-59.9-0.7-77.4s10.8-65.3,10.8-65.3s-5.4-54.5-12.1-63.3s1.3-39.7,1.3-39.7L190.4,466.6z"/>
<path class="st10" d="M171.4,251.3c0.8,1.8,2.7,2.8,4.4,3.7c9.9,5.4,18.2,13.3,26.3,21.1c-2-6.9-1.6-14.3,1.2-20.9
	c1-2.3,2.2-4.7,1.6-7c-0.5-1.7-2-3-3.4-4.1c-3.3-2.6-6.8-4.9-10.4-7.1c-2.5-1.5-7.7-5.5-10.6-5.1c-0.2,3.9-0.2,7.4-1.9,11.1
	C178.1,243.9,171.7,252,171.4,251.3z"/>
<circle class="st10" cx="205.9" cy="232.4" r="27.6"/>
<path class="st8" d="M207.2,297.7c0,0,4.7-23.6-8.8-31.6s-28.9-17.5-28.9-17.5s-4.7-0.7-6.7,9.4c0,0-38.4,7.4-42.4,43.8
	s2.7,89.5,2.7,89.5s-6.1,46.4-13.5,71.4c0,0-6.1,5.4,20.9-2.7s74,22.9,74,22.9s4.7-4.7,4.7-8.1s5.4-22.9,5.4-22.9s4.7-82.8,6.7-92.2
	S213.3,299,207.2,297.7z"/>
<path class="st9" d="M199.4,235.2c1.7-0.9,3.5-1.4,5.4-1.4c1.9,0,3.8-0.6,5.4-1.6c2.6-2,2.8-5.9,4.7-8.5c2.8-3.9,8.3-4.3,13-4.1
	c2.9,0.1,6,0.3,8.5-1.3c2.5-1.6,3.7-4.7,4.5-7.5c1-3.4,1.7-7.5-0.8-10c-1.7-1.7-4.4-2.1-6.4-3.6c-2-1.6-2.8-4.2-3.9-6.5
	c-1.2-2.8-3.2-5.2-5.6-7.1c-3.6-2.5-8.2-3.1-12.6-3s-8.8,0.6-13.2,0.1c-3.6-0.4-7.1-1.6-10.7-1.1c-4.5,0.7-8.3,4.1-10.5,8.1
	s-3.2,8.6-4.1,13.1l-2.5,12.2c-0.8,3.8-1.6,7.7-1,11.5c1.3,7.9,8.3,14.2,8.8,22.3c0.9-4.5,4.1-8.2,8.3-9.9c0.5-0.3,1.1-0.3,1.7-0.2
	c0.7,0.2,1.1,0.9,1.5,1.5c1.2,1.5,4.8,3.9,6.8,2.8C198.4,239.8,197.1,236.8,199.4,235.2z"/>
<path class="st10" d="M129.8,360.9c0,0-4.7,29.6,14.8,26.9c0,0,10.1-1.3,11.4,0s51.2-7.4,57.9-14.8c0,0,8.1-2.7,12.1,1.3
	s44.4,8.1,32.3-4s-31-14.8-31-14.8l-25.6,1.3c0,0-13.5,4-21.5,0s-31-2.7-31-2.7L129.8,360.9z"/>
<path class="st8" d="M157.4,267.4c0,0-30.3,3.4-30.3,47.1v55.9c0,0,16.8-7.4,20.2-6.7s16.8-8.8,16.8-8.8s15.5-36.3,14.1-46.4
	S177.6,268.7,157.4,267.4z"/>
<ellipse class="st9" cx="205.9" cy="215.2" rx="25.9" ry="13.5"/>
<ellipse class="st9" cx="181.6" cy="217.6" rx="9.1" ry="22.6"/>
<g class="st1">
	<g>
		<path d="M708,341.4c-8.2-11.6-21.5-18.5-35.7-18.5c-24.1,0-43.5,19.5-43.6,43.6c0,0.5,0.1,0.9,0.1,1.3l-25.6,8.5
			c-12.7-14.4-33.3-18.8-50.7-10.7l-44-44c10.1-21.9,0.5-47.8-21.4-57.9c-21.9-10.1-47.8-0.5-57.9,21.4
			c-10.1,21.9-0.5,47.8,21.4,57.9c12.7,5.9,27.5,5.3,39.7-1.7l42.4,42.3c-5.6,9.8-7.1,21.4-4.2,32.4l-27.3,18.2
			c-18.8-15.4-46.5-12.6-61.9,6.2c-15.4,18.8-12.6,46.5,6.2,61.9c18.8,15.4,46.5,12.6,61.9-6.2c8.9-10.9,12.1-25.5,8.5-39.1
			l27.3-18.2c11.5,9.4,26.9,12.2,40.9,7.6l13.6,20.1c-17.3,17.4-17.3,45.5,0.1,62.8c17.4,17.3,45.5,17.3,62.8-0.1
			c17.3-17.4,17.3-45.5-0.1-62.8c-10.1-10.1-24.4-14.7-38.5-12.4l-15.9-23.8c6.5-9,9.2-20.2,7.6-31.2l23-7.7
			c13.8,19.7,41,24.4,60.7,10.6C717,388.3,721.8,361.1,708,341.4z M468.9,337.4c-18.7,0-33.9-15.2-33.9-33.9
			c0-18.7,15.2-33.9,33.9-33.9c18.7,0,33.9,15.2,33.9,33.9C502.8,322.2,487.6,337.4,468.9,337.4z M498.2,335.7
			c1.8-1.7,3.5-3.5,5.1-5.5l51.6,51.7c1.5,1.5,1.5,3.8,0,5.3c-0.2,0.2-0.4,0.3-0.6,0.5c-1.5,1-3.4,0.8-4.7-0.5L498.2,335.7z
			 M473.8,502c-18.7,0-33.9-15.2-33.9-33.9c0-18.7,15.2-33.9,33.9-33.9c18.7,0,33.9,15.2,33.9,33.9C507.6,486.8,492.5,502,473.8,502
			z M512.3,447.9c-1.2-2.3-2.6-4.5-4.2-6.5l23.9-16c1.2,2.3,2.6,4.5,4.2,6.5L512.3,447.9z M576,434.5l2.4,3.6
			c-18.1,4.4-36.4-6.8-40.8-24.9c-1.8-7.4-1-15.3,2.2-22.2l3,3c5.3,5.1,13.8,5,18.9-0.3c5-5.2,5-13.4,0-18.6l-1.9-1.9
			c17.6-6,36.8,3.4,42.8,21c1.2,3.6,1.8,7.3,1.8,11.1c0,5.7-1.4,11.4-4.2,16.4l-1.4-2c-4.2-6.3-12.7-7.9-19-3.7
			C573.7,420,572,428.3,576,434.5z M628.7,463.3c18.7,0,33.9,15.2,33.9,33.9c0,18.7-15.2,33.9-33.9,33.9s-33.9-15.2-33.9-33.9
			S610,463.3,628.7,463.3z M612.1,456.9c-2.4,1-4.7,2.2-6.9,3.7l-21.1-31.3c-1.2-1.9-0.7-4.3,1.2-5.6c1.9-1.2,4.3-0.7,5.6,1.2
			L612.1,456.9z M611.3,389.7c-0.7-1.8-1.4-3.5-2.3-5.2l21.2-7.1c0.5,1.8,1.1,3.6,1.8,5.3L611.3,389.7z M672.3,400.3
			c-18.7,0-33.9-15.2-33.9-33.9c0-18.7,15.2-33.9,33.9-33.9c18.7,0,33.9,15.2,33.9,33.9C706.1,385.2,691,400.3,672.3,400.3z"/>
	</g>
</g>
<g>
	<g>
		<path class="st11" d="M707.2,334.4c-8.2-11.6-21.5-18.5-35.7-18.5c-24.1,0-43.5,19.5-43.6,43.6c0,0.5,0.1,0.9,0.1,1.3l-25.6,8.5
			c-12.7-14.4-33.3-18.8-50.7-10.7l-44-44c10.1-21.9,0.5-47.8-21.4-57.9c-21.9-10.1-47.8-0.5-57.9,21.4
			c-10.1,21.9-0.5,47.8,21.4,57.9c12.7,5.9,27.5,5.3,39.7-1.7l42.4,42.3c-5.6,9.8-7.1,21.4-4.2,32.4l-27.3,18.2
			c-18.8-15.4-46.5-12.6-61.9,6.2c-15.4,18.8-12.6,46.5,6.2,61.9c18.8,15.4,46.5,12.6,61.9-6.2c8.9-10.9,12.1-25.5,8.5-39.1
			l27.3-18.2c11.5,9.4,26.9,12.2,40.9,7.6l13.6,20.1c-17.3,17.4-17.3,45.5,0.1,62.8c17.4,17.3,45.5,17.3,62.8-0.1
			c17.3-17.4,17.3-45.5-0.1-62.8c-10.1-10.1-24.4-14.7-38.5-12.4l-15.9-23.8c6.5-9,9.2-20.2,7.6-31.2l23-7.7
			c13.8,19.7,41,24.4,60.7,10.6C716.3,381.3,721.1,354.1,707.2,334.4z M468.2,330.4c-18.7,0-33.9-15.2-33.9-33.9
			c0-18.7,15.2-33.9,33.9-33.9s33.9,15.2,33.9,33.9C502.1,315.2,486.9,330.4,468.2,330.4z M497.5,328.6c1.8-1.7,3.5-3.5,5.1-5.5
			l51.6,51.7c1.5,1.5,1.5,3.8,0,5.3c-0.2,0.2-0.4,0.3-0.6,0.5c-1.5,1-3.4,0.8-4.7-0.5L497.5,328.6z M473,495
			c-18.7,0-33.9-15.2-33.9-33.9c0-18.7,15.2-33.9,33.9-33.9c18.7,0,33.9,15.2,33.9,33.9C506.9,479.8,491.7,495,473,495z
			 M511.6,440.9c-1.2-2.3-2.6-4.5-4.2-6.5l23.9-16c1.2,2.3,2.6,4.5,4.2,6.5L511.6,440.9z M575.3,427.5l2.4,3.6
			c-18.1,4.4-36.4-6.8-40.8-24.9c-1.8-7.4-1-15.3,2.2-22.2l3,3c5.3,5.1,13.8,5,18.9-0.3c5-5.2,5-13.4,0-18.6l-1.9-1.9
			c17.6-6,36.8,3.4,42.8,21c1.2,3.6,1.8,7.3,1.8,11.1c0,5.7-1.4,11.4-4.2,16.4l-1.4-2c-4.2-6.3-12.7-7.9-19-3.7
			C573,413,571.3,421.3,575.3,427.5z M628,456.3c18.7,0,33.9,15.2,33.9,33.9c0,18.7-15.2,33.9-33.9,33.9
			c-18.7,0-33.9-15.2-33.9-33.9C594.1,471.4,609.2,456.3,628,456.3z M611.4,449.9c-2.4,1-4.7,2.2-6.9,3.7l-21.1-31.3
			c-1.2-1.9-0.7-4.3,1.2-5.6c1.9-1.2,4.3-0.7,5.6,1.2L611.4,449.9z M610.6,382.7c-0.7-1.8-1.4-3.5-2.3-5.2l21.2-7.1
			c0.5,1.8,1.1,3.6,1.8,5.3L610.6,382.7z M671.5,393.3c-18.7,0-33.9-15.2-33.9-33.9c0-18.7,15.2-33.9,33.9-33.9s33.9,15.2,33.9,33.9
			C705.4,378.1,690.2,393.3,671.5,393.3z"/>
	</g>
</g>
</svg>
