<svg id="Capa_1" data-name="Capa 1" xmlns="http://www.w3.org/2000/svg" viewBox="0 0 291.5 289.58"><defs><style>.cls-1{opacity:0.1;isolation:isolate;}.cls-2{fill:#ff5c97;}</style></defs><title>icono</title><g class="cls-1"><path d="M637.88,444.41a43.63,43.63,0,0,0-79.3,25.1c0,.5.1.9.1,1.3l-25.6,8.5a43.25,43.25,0,0,0-50.7-10.7l-44-44a43.65,43.65,0,1,0-57.9,21.4,43.19,43.19,0,0,0,39.7-1.7l42.4,42.3a43.06,43.06,0,0,0-4.2,32.4l-27.3,18.2a43.93,43.93,0,1,0,14.7,22.8l27.3-18.2a43.23,43.23,0,0,0,40.9,7.6l13.6,20.1a44.35,44.35,0,1,0,24.3-12.5L536,533.21a42.76,42.76,0,0,0,7.6-31.2l23-7.7a43.51,43.51,0,0,0,71.3-49.9Zm-239.1-4a33.9,33.9,0,1,1,33.9-33.9A33.93,33.93,0,0,1,398.78,440.41Zm29.3-1.7a53.55,53.55,0,0,0,5.1-5.5l51.6,51.7a3.68,3.68,0,0,1,0,5.3c-.2.2-.4.3-.6.5a3.66,3.66,0,0,1-4.7-.5ZM403.68,605a33.9,33.9,0,1,1,33.9-33.9A33.93,33.93,0,0,1,403.68,605Zm38.5-54.1a40.12,40.12,0,0,0-4.2-6.5l23.9-16a40.12,40.12,0,0,0,4.2,6.5Zm63.7-13.4,2.4,3.6a33.8,33.8,0,0,1-38.6-47.1l3,3a13.37,13.37,0,0,0,18.9-18.9l-1.9-1.9a33.74,33.74,0,0,1,42.8,21,34.88,34.88,0,0,1,1.8,11.1,33.64,33.64,0,0,1-4.2,16.4l-1.4-2a13.67,13.67,0,0,0-19-3.7A13.44,13.44,0,0,0,505.88,537.51Zm52.7,28.8a33.9,33.9,0,1,1-33.9,33.9A33.93,33.93,0,0,1,558.58,566.31Zm-16.6-6.4a38.28,38.28,0,0,0-6.9,3.7L514,532.31a4,4,0,0,1,6.8-4.4Zm-.8-67.2a48.29,48.29,0,0,0-2.3-5.2l21.2-7.1a47.18,47.18,0,0,0,1.8,5.3Zm61,10.6a33.9,33.9,0,1,1,33.9-33.9A33.93,33.93,0,0,1,602.18,503.31Z" transform="translate(-354.27 -355.69)"/></g><path class="cls-2" d="M637.08,437.41a43.63,43.63,0,0,0-79.3,25.1c0,.5.1.9.1,1.3l-25.6,8.5a43.25,43.25,0,0,0-50.7-10.7l-44-44a43.65,43.65,0,1,0-57.9,21.4,43.19,43.19,0,0,0,39.7-1.7l42.4,42.3a43.06,43.06,0,0,0-4.2,32.4l-27.3,18.2A43.93,43.93,0,1,0,445,553l27.3-18.2a43.23,43.23,0,0,0,40.9,7.6l13.6,20.1a44.35,44.35,0,1,0,24.3-12.5l-15.9-23.8a42.76,42.76,0,0,0,7.6-31.2l23-7.7a43.51,43.51,0,0,0,71.3-49.9Zm-239-4a33.9,33.9,0,1,1,33.9-33.9A33.93,33.93,0,0,1,398.08,433.41Zm29.3-1.8a53.55,53.55,0,0,0,5.1-5.5l51.6,51.7a3.68,3.68,0,0,1,0,5.3c-.2.2-.4.3-.6.5a3.66,3.66,0,0,1-4.7-.5ZM402.88,598a33.9,33.9,0,1,1,33.9-33.9A33.93,33.93,0,0,1,402.88,598Zm38.6-54.1a40.12,40.12,0,0,0-4.2-6.5l23.9-16a40.12,40.12,0,0,0,4.2,6.5Zm63.7-13.4,2.4,3.6A33.8,33.8,0,0,1,469,487l3,3a13.37,13.37,0,0,0,18.9-18.9l-1.9-1.9a33.74,33.74,0,0,1,42.8,21,34.88,34.88,0,0,1,1.8,11.1,33.64,33.64,0,0,1-4.2,16.4l-1.4-2a13.67,13.67,0,0,0-19-3.7A13.44,13.44,0,0,0,505.18,530.51Zm52.7,28.8a33.9,33.9,0,1,1-33.9,33.9A33.93,33.93,0,0,1,557.88,559.31Zm-16.6-6.4a38.28,38.28,0,0,0-6.9,3.7l-21.1-31.3a4,4,0,1,1,6.8-4.4Zm-.8-67.2a48.29,48.29,0,0,0-2.3-5.2l21.2-7.1a47.18,47.18,0,0,0,1.8,5.3Zm60.9,10.6a33.9,33.9,0,1,1,33.9-33.9A33.93,33.93,0,0,1,601.38,496.31Z" transform="translate(-354.27 -355.69)"/></svg>