<?xml version="1.0" encoding="utf-8"?>
<!-- Generator: Adobe Illustrator 23.0.5, SVG Export Plug-In . SVG Version: 6.00 Build 0)  -->
<svg version="1.1" id="a09c848c-d5c4-49aa-a19e-91c8e1064310"
	 xmlns="http://www.w3.org/2000/svg" xmlns:xlink="http://www.w3.org/1999/xlink" x="0px" y="0px" viewBox="0 0 1126.8 633.6"
	 style="enable-background:new 0 0 1126.8 633.6;" xml:space="preserve">
<style type="text/css">
	.st0{opacity:0.1;fill:#6C63FF;enable-background:new    ;}
	.st1{fill:#FF5C97;}
	.st2{fill:#444053;}
	.st3{fill:#FFFFFF;}
	.st4{fill:#1E3659;}
	.st5{opacity:0.8;fill:#FF5C97;enable-background:new    ;}
	.st6{opacity:0.2;}
	.st7{fill:#6C63FF;}
	.st8{opacity:0.2;fill:#6C63FF;enable-background:new    ;}
	.st9{fill:url(#SVGID_1_);}
	.st10{fill:#65617D;}
	.st11{opacity:5.000000e-02;fill:#3F3D56;enable-background:new    ;}
	.st12{fill:#3F3D56;}
	.st13{opacity:5.000000e-02;enable-background:new    ;}
	.st14{opacity:0.1;enable-background:new    ;}
	.st15{fill:#EE8E9E;}
	.st16{fill:#E3E8F4;}
	.st17{fill:#D0CDE1;}
	.st18{fill:#565387;}
	.st19{opacity:0.1;}
	.st20{fill:url(#SVGID_2_);}
	.st21{fill:#2D293D;}
	.st22{opacity:5.000000e-02;}
	.st23{fill:#FFCDD3;}
	.st24{fill:#DCE6F2;}
	.st25{fill:#575988;}
	.st26{fill:url(#SVGID_3_);}
	.st27{fill:#4C4981;}
	.st28{fill:#AE6E79;}
	.st29{opacity:0.1;fill:#D0CDE1;enable-background:new    ;}
</style>
<title>status update</title>
<path class="st0" d="M650.4,130c-70.8,0.5-138.7-15.4-203.7-33.3s-129.5-37.8-198.8-46c-44.6-5.3-95.4-4.4-130.5,16
	c-33.8,19.7-43.7,51.9-48.7,81.6c-3.7,22.4-5.5,45.9,7.5,66.2c9.1,14.1,24.7,25.7,35.7,39.2c38.3,46.8,14.5,107.1-23.4,155.5
	c-17.8,22.7-38.6,44.5-52.1,68.5s-19.2,51.1-5.8,74.6c13.3,23.3,43.5,40.1,76.1,51.5c66.1,23.1,143.2,27.7,218.2,29.2
	c166.1,3.2,332.7-6.6,498.8-16.5c61.5-3.7,123.2-7.3,183.5-17.2c33.5-5.5,67.9-13.4,91.8-30.6c30.2-21.8,36.7-57.1,15-82.3
	c-36.4-42.3-133-49.7-159-95.5c-14.3-25.2-1.6-54.4,17-78.9c39.9-52.7,108.3-100,109.9-158.6c1.1-40.3-34-79.3-86.7-96.4
	c-55.2-18-130.8-12.8-169.8,21.6C785.2,113.9,712.9,129.6,650.4,130z"/>
<path class="st1" d="M929,550.9c0,0-12.3-8.1-24.5-2.3c0,0,3.8,7.2,19.2,6.5L929,550.9z"/>
<path class="st1" d="M930.5,551.4c0,0,3.7,14.2-5.6,23.9c0,0-5.6-5.9,0-20.3L930.5,551.4z"/>
<path class="st1" d="M945.8,537.7c0,0-0.9-12.1-28.3-8.1c0,0-0.1,7.8,9.5,11.5S941,541.7,945.8,537.7z"/>
<path class="st1" d="M947.5,537.6c0,0,11.6,3.7,1.3,29.4c0,0-7.6-1.7-9-11.9S942.5,541.3,947.5,537.6z"/>
<path class="st1" d="M963,520.4c0,0,1.6-19.9-26.4-17.9c0,0-2,18,21.5,22.7L963,520.4z"/>
<path class="st1" d="M981.4,497.9c0,0-3.8-22.6-31.8-15.9c0,0-0.1,19.5,27.2,21.2L981.4,497.9z"/>
<path class="st1" d="M994.9,474.7c0,0-6.4-22-34.1-15.4c0,0,6.6,19.8,32.3,19.5L994.9,474.7z"/>
<path class="st1" d="M1007.8,452c0,0-6.3-22.8-33-16c0,0,8.9,21.7,31.2,19.9L1007.8,452z"/>
<path class="st1" d="M1016,430.4c0,0-4.8-27.9-29.7-21.7c0,0,7.2,25.4,27.9,25.8L1016,430.4z"/>
<path class="st1" d="M1023.8,404.3c0,0-5.8-28.1-31-20c0,0,9.9,26.6,29.2,23.8L1023.8,404.3z"/>
<path class="st1" d="M1028.6,380c0,0-9.2-28.1-28.7-27.4c0,0,9.4,29.7,27,33L1028.6,380z"/>
<path class="st1" d="M1031.6,356.4c0,0-10-33.9-25.9-31.3c0,0,6.9,25.9,25.3,36.5L1031.6,356.4z"/>
<path class="st1" d="M1033.4,328.1c0,0-9.4-28.2-25-29.4c0,0,6.4,27.8,24.7,36.7L1033.4,328.1z"/>
<path class="st1" d="M1035.2,301.8c0,0-11.7-28.3-22-28.9c0,0,5.1,27.8,21,33.5L1035.2,301.8z"/>
<path class="st1" d="M1036.5,277.2c0,0-7.2-30.7-17.5-33.2c0,0,1.4,25.1,16.5,35.5L1036.5,277.2z"/>
<path class="st1" d="M1040.4,245.1c0,0-7.6-24.5-15.9-28.2c0,0,1.7,28.8,14,34.2L1040.4,245.1z"/>
<path class="st1" d="M1043.7,224.1l1.5-43.1c0,0-15.6,32.6-2.7,50.8L1043.7,224.1z"/>
<path class="st1" d="M1055.8,181.2c0,0,11.3-31.5,14-33.3c0,0-22.1,20.4-19.9,46.7L1055.8,181.2z"/>
<path class="st1" d="M963.7,520.3c0,0,19.8-2.6,19.2,25.4c0,0-17.9,2.9-23.8-20.3L963.7,520.3z"/>
<path class="st1" d="M982.4,497.2c0,0,22.9-0.1,21,28.6c0,0-19.2,3.4-25.6-23.2L982.4,497.2z"/>
<path class="st1" d="M995.2,476.5c0,0,20.8-9.8,34.1,15.4c0,0-19.2,8.1-35.9-11.3L995.2,476.5z"/>
<path class="st1" d="M1008.2,452.2c0,0,21.3-10.4,33.8,14.2c0,0-22.2,7.6-35.5-10.3L1008.2,452.2z"/>
<path class="st1" d="M1015.8,431c0,0,20.5-19.6,36.8,0.2c0,0-20.9,16.1-37.8,4.1L1015.8,431z"/>
<path class="st1" d="M1022.6,403.6c0,0,20.6-20,36.8,0.9c0,0-23.1,16.4-37.6,3.3L1022.6,403.6z"/>
<path class="st1" d="M1026.5,379.2c0,0,15.9-25,34.6-19.4c0,0-16.5,26.5-34.4,25.3L1026.5,379.2z"/>
<path class="st1" d="M1031.2,356.2c0,0,16-31.5,31.1-26c0,0-11.5,24.2-31.5,31.3L1031.2,356.2z"/>
<path class="st1" d="M1032.3,326.5c0,0,16.4-24.8,31.9-21.8c0,0-13.4,25.1-33.4,28.9L1032.3,326.5z"/>
<path class="st1" d="M1033.5,301.2c0,0,12.8-27.8,23.1-28c0,0-6.1,27.6-22.3,32.7L1033.5,301.2z"/>
<path class="st1" d="M1036,276.6c0,0,14.2-28.2,24.8-28.2c0,0-7.3,24.1-24.3,30.7L1036,276.6z"/>
<path class="st1" d="M1038.2,246.9c0,0,10.6-23.3,19.4-25.9c0,0-5.3,28.4-18.2,32.1L1038.2,246.9z"/>
<path class="st1" d="M1044.9,223.3l23.7-36.1c0,0-6.1,35.6-27.1,43L1044.9,223.3z"/>
<path class="st1" d="M1061.2,184.1c0,0,27.5-19,28.5-22.1c0,0-14,26.6-40,31.3L1061.2,184.1z"/>
<path class="st1" d="M1062.8,175.6c0,0,31.6-30.4,39.7-30.4c0,0-26.1,1.2-40.4,28.7L1062.8,175.6z"/>
<path class="st2" d="M1038.5,251.4l1.2,0.1c5.9-46.5,14.6-74,24.4-77.4l-0.4-1.1C1053.3,176.7,1044.6,203.7,1038.5,251.4z"/>
<path class="st2" d="M1029.7,362.5l1.7,0.2c0.4-4.3,0.6-8.8,0.8-13.2c1.7-38.5,4.2-73.8,7.6-100.3l-1-1.3
	c-3.4,26.5-6.7,62.9-8.3,101.5C1030.4,353.8,1030.1,358.2,1029.7,362.5z"/>
<path class="st2" d="M896.5,573.1c0.3-0.1,30.9-13.8,62.7-46.4c18.6-19.1,34.1-41,45.8-65c14.7-29.9,23.7-66.7,26.7-102.4l-1.8,0.9
	c-6.7,80.2-43.3,135-72.3,164.8c-31.5,32.3-61.8,45.9-62.1,46L896.5,573.1z"/>
<path class="st3" d="M969.9,31.2v518.4c0,15.4-14.9,28-33.2,28H233.3c-18.4,0-33.2-12.5-33.2-28V31.2C200,15.8,214.9,0,233.3,0
	l703.3,1.7C954.9,1.7,969.9,15.8,969.9,31.2z"/>
<path class="st4" d="M969.9,31.4v24H200v-24C200,14,214.1,0,231.4,0c0,0,0,0,0,0h707.1C955.8,0,969.9,14,969.9,31.4z"/>
<circle class="st5" cx="237.3" cy="27.7" r="11.1"/>
<circle class="st5" cx="269.5" cy="27.7" r="11.1"/>
<circle class="st5" cx="301.8" cy="27.7" r="11.1"/>
<g class="st6">
	<path class="st7" d="M653.4,189.8v56c0,1.7-3.1,3-7,3H498.7c-3.9,0-7-1.4-7-3v-56c0-1.7,3.1-3.4,7-3.4h147.7
		C650.3,186.4,653.4,188.1,653.4,189.8z"/>
</g>
<rect x="562.7" y="206.4" class="st4" width="77" height="2.7"/>
<path class="st8" d="M523.7,200.5c-10.1,0-18.2,8.2-18.2,18.3c0,6.1,3.1,11.8,8.2,15.2v-1.2c0-2.1,1.6-3.9,3.7-4.1
	c1.9,3.5,6.3,4.8,9.8,2.9c1.2-0.7,2.2-1.7,2.9-2.9c2.1,0.3,3.6,2,3.7,4.1v1.3c8.4-5.5,10.8-16.8,5.4-25.2
	C535.7,203.6,529.9,200.5,523.7,200.5L523.7,200.5z M530.9,223.6c-0.3,4-3.7,7-7.7,6.7c-3.6-0.2-6.5-3.1-6.7-6.7
	c-1.8-4-0.1-8.7,3.9-10.5c0.1,0,0.2-0.1,0.3-0.1c-0.3-0.4-0.4-0.8-0.4-1.3c0-1.3,1.1-2.4,2.4-2.4c0,0,0,0,0,0h0.2
	c-1.3,0.1-2.2,1.1-2.2,2.4c0,0.4,0.1,0.8,0.3,1.2h0.1c0-0.2,0-0.3,0-0.5c0-0.5,0.2-1,0.5-1.4c0.3-1,1.2-1.7,2.3-1.7h0.2
	c-0.7,0.1-1.4,0.5-1.8,1.1c0.4-0.3,0.9-0.4,1.3-0.4c1.3,0,2.4,1.1,2.4,2.4c0,0.1,0,0.2,0,0.3c3.5,0.9,5.9,4.1,5.9,7.7
	C531.6,221.4,531.4,222.6,530.9,223.6z"/>
<rect x="562.7" y="213" class="st8" width="77" height="2.7"/>
<rect x="562.7" y="219.7" class="st8" width="77" height="2.7"/>
<rect x="562.7" y="226.3" class="st8" width="77" height="2.7"/>
<g class="st6">
	<path class="st7" d="M480,299.5v56c0,1.7-3.1,3-7,3H325.3c-3.9,0-7-1.4-7-3v-56c0-1.7,3.1-3.4,7-3.4H473
		C476.9,296.1,480,297.8,480,299.5z"/>
</g>
<rect x="389.3" y="316.1" class="st4" width="77" height="2.7"/>
<path class="st8" d="M350.3,310.1c-10.1,0-18.3,8.2-18.3,18.2c0,6.1,3.1,11.9,8.2,15.2v-1.2c0-2.1,1.6-3.9,3.6-4.1
	c1.9,3.5,6.3,4.8,9.8,2.9c1.2-0.7,2.2-1.7,2.9-2.9c2.1,0.2,3.6,2,3.6,4.1v1.3c8.5-5.5,10.9-16.8,5.4-25.2
	C362.3,313.3,356.5,310.1,350.3,310.1z M357.5,333.3c-0.3,4-3.7,7-7.7,6.7c-3.6-0.2-6.5-3.1-6.7-6.7c-0.5-1-0.7-2.2-0.7-3.3
	c0-3.2,1.9-6.1,4.9-7.3c-0.2-0.4-0.4-0.8-0.4-1.3c0-1.3,1.1-2.4,2.4-2.4h0.2c-1.3,0.1-2.3,1.2-2.2,2.6c0,0.4,0.1,0.7,0.3,1h0.1
	c0-0.2,0-0.3,0-0.5c0.2-1.5,1.3-2.8,2.8-3.1h0.1c-0.7,0.1-1.4,0.5-1.8,1.1c0.4-0.3,0.9-0.4,1.3-0.4c1.3,0,2.4,1.1,2.4,2.4v0
	c0,0.1,0,0.2,0,0.3c4.2,1.1,6.8,5.4,5.6,9.7C357.8,332.5,357.7,332.9,357.5,333.3L357.5,333.3z"/>
<rect x="389.3" y="322.7" class="st8" width="77" height="2.7"/>
<rect x="389.3" y="329.3" class="st8" width="77" height="2.7"/>
<rect x="389.3" y="336" class="st8" width="77" height="2.7"/>
<g class="st6">
	<path class="st7" d="M440.1,121.9v56c0,1.7-3.1,3-7,3H285.4c-3.9,0-7-1.4-7-3v-56c0-1.7,3.1-3.4,7-3.4h147.7
		C437,118.5,440.1,120.2,440.1,121.9z"/>
</g>
<rect x="349.4" y="138.5" class="st4" width="77" height="2.7"/>
<rect x="349.4" y="145.1" class="st8" width="77" height="2.7"/>
<rect x="349.4" y="151.8" class="st8" width="77" height="2.7"/>
<rect x="349.4" y="158.4" class="st8" width="77" height="2.7"/>
<path class="st8" d="M310.4,132.5c-10.1,0-18.2,8.3-18.2,18.3c0,6.1,3.1,11.8,8.2,15.1v-3.1c0-2.1,1.6-3.9,3.6-4.1
	c1.9,3.5,6.3,4.8,9.8,2.9c1.2-0.7,2.2-1.7,2.9-2.9c2.1,0.2,3.6,2,3.6,4.1v3.2c8.5-5.5,10.8-16.8,5.4-25.2
	C322.4,135.6,316.6,132.5,310.4,132.5z M318.4,154.8c-0.1,0.1-0.1,0.2-0.2,0.3c-0.2,0.1-0.3,0.2-0.5,0.2h-0.4c-1.2,3.8-5.2,6-9,4.8
	c-3-0.9-5.1-3.7-5.2-6.9c0-1.2,0.3-2.5,1-3.6l-0.1,0c-0.8-1-0.7-2.5,0.2-3.4c0.5-0.3,1-0.5,1.5-0.5c1.6-0.5,2.9-1.5,3.8-2.9
	c0,0.4,0,0.7,0,1.1c0.6-0.7,1.6-0.7,2.3-0.1c0,0,0,0,0,0c0.2,0.3,0.4,0.5,0.6,0.7c0.3,0.1,0.5,0.2,0.8,0.2l1.8,0.2
	c0.8,0,1.5,0.3,2.1,0.8c0.3,0.4,0.6,0.8,0.7,1.2c0.5,1.2,0.9,2.5,1.2,3.9C319.3,152.2,319.1,153.6,318.4,154.8L318.4,154.8z"/>
<g class="st6">
	<path class="st7" d="M693.8,386.8v56c0,1.7-3.1,3-7,3H539c-3.9,0-7-1.3-7-3v-56c0-1.7,3.1-3.4,7-3.4h147.8
		C690.7,383.4,693.8,385.1,693.8,386.8z"/>
</g>
<rect x="603" y="403.4" class="st4" width="77" height="2.7"/>
<rect x="603" y="410" class="st8" width="77" height="2.7"/>
<rect x="603" y="416.6" class="st8" width="77" height="2.7"/>
<rect x="603" y="423.3" class="st8" width="77" height="2.7"/>
<path class="st8" d="M564.1,397.4c-10.1,0-18.2,8.2-18.2,18.3c0,6.1,3.1,11.8,8.2,15.2v-3.1c0-2.1,1.6-3.8,3.7-4.1
	c1.9,3.5,6.3,4.8,9.8,2.9c1.2-0.7,2.2-1.7,2.9-2.9c2.1,0.2,3.6,2,3.7,4.1v3.2c8.4-5.5,10.8-16.8,5.4-25.2
	C576,400.5,570.3,397.4,564.1,397.4L564.1,397.4z M572.1,419.7c-0.1,0.1-0.1,0.2-0.2,0.3c-0.2,0.1-0.3,0.2-0.5,0.2h-0.4
	c-1.1,3.8-5.1,6.1-9,5s-6.1-5.1-5-9c0.2-0.6,0.4-1.1,0.7-1.6h-0.1c-0.8-1-0.7-2.5,0.2-3.3c0.5-0.3,1-0.5,1.5-0.5
	c1.6-0.5,2.9-1.5,3.8-2.9c0,0.4,0,0.7,0,1.1c0.6-0.7,1.6-0.7,2.3-0.1c0,0,0,0,0,0c0.2,0.3,0.4,0.5,0.7,0.7c0.2,0.1,0.5,0.2,0.8,0.2
	l1.8,0.2c0.8,0,1.5,0.3,2.1,0.8c0.3,0.4,0.6,0.8,0.7,1.2c0.5,1.2,0.9,2.5,1.2,3.8C572.9,417.1,572.7,418.5,572.1,419.7L572.1,419.7z
	"/>
<linearGradient id="SVGID_1_" gradientUnits="userSpaceOnUse" x1="466.9304" y1="-103.7831" x2="466.9304" y2="108.5391" gradientTransform="matrix(1 0 0 -1 -36.6 502.8)">
	<stop  offset="0" style="stop-color:#808080;stop-opacity:0.25"/>
	<stop  offset="0.54" style="stop-color:#808080;stop-opacity:0.12"/>
	<stop  offset="1" style="stop-color:#808080;stop-opacity:0.1"/>
</linearGradient>
<path class="st9" d="M519.6,570.3l-21.9-31.8c0,0-0.4-7.9-1.8-9.7s-0.3-5.9-0.3-5.9s1.5-2.3,0.2-2.5s-0.2-5.2-0.2-5.2l-0.1-8
	c0,0,1.2-7.7,0.2-9.5c-0.6-1-0.6-2.3,0.1-3.3c0,0,1.2-4.4,0-5.5s-0.9-8-0.6-13.4s-2.2-8.5-2.2-9.3s-8.1-8.8-8.1-9.5
	s-5.1-3.7-8.2-4.5s-4.6-1.4-4.5-1.8s-4.8-2-4.8-2s-4.3-0.3-6-2.5s-6.6-2.8-6.8-2.8l-0.1-0.4l-0.1-0.5c0.4-0.7,0.7-1.3,1.1-2
	c0.1-0.2,0.2-0.4,0.3-0.6c1.8,0,3.6-0.5,5-1.6c1.5-1.2,2.4-3,2.5-4.9c0.1-1.9-0.3-3.8-1.2-5.5c-0.9-1.8-2.2-3.8-1.8-5.8
	c0.2-0.9,0.7-1.6,1-2.5c0.4-1.7,0.1-3.4-0.7-4.8c-0.8-1.5-1.9-2.8-2.7-4.2c-1.1-1.8-1.8-3.9-2.2-6c-0.1-1.1-0.3-2.2-0.8-3.3
	c-0.5-0.7-1.1-1.3-1.8-1.8c-3.2-2.3-7.1-3.5-11-3.3c-2.8,0.1-5.6,0.8-8.4,0.5c-1.7-0.3-3.3-0.7-4.9-1.3c-3.4-1-7.4-1.4-10.4,0.5
	s-4.2,5.8-6.2,8.9c-1.8,2.7-4.4,4.9-5.8,7.8c0-0.1,0-0.1,0-0.2c-0.3,0.7-0.6,1.4-0.8,2.1c-0.4,2.3-0.2,4.6,0.5,6.8
	c0.2,1.2,0.8,2.2,1.7,3c1,0.7,2.4,0.5,3.6,0.7c0,0.2-0.1,0.4-0.1,0.6c-0.3,1.6-0.5,3.2-0.5,4.9c0,10.4,6.8,19.5,16.7,22.5
	c0,0.2,0,0.4,0,0.6c0,0.6,0,1.2-0.1,1.8l0,0c0,0-10.3-2.1-13.1-0.7s-8.2,2.5-9,3.4s-2.9,0.2-4.7,5s-2,9.7-4.4,12s-3.6,3.8-3.7,5.4
	s0.3,2-0.6,2.5s-2.3,2.7-1.9,3.5c0.3,1.2-0.2,2.4-1.1,3.1c-1,0.7-1.5,1.9-1.4,3.1c0,0-0.6,2.3-2,2.8s-2.4,3.9-2.4,3.9l-4.6,5.3
	l-9.2-10.2c-1.4-1.6-3.9-1.7-5.5-0.3l-4.5,4c-1.7,0.4-3.3,1.4-4.5,2.7c-1,1-1.8,2.2-2.3,3.5l-2.5,2.2c-1.6,2-1.9,4.7-0.6,7l5.9,6.5
	v0.1c-2.1,0.2-4.1,1-5.7,2.3c-8.8,7.8-8.9,14.9-7.6,18.2s12.5,15.9,12.5,15.9s6.5,8.4,15.9,12.9l0,0l-0.1,0.1
	c-0.2,0.2-0.4,0.4-0.5,0.6l-0.1,0.2c-0.1,0.1-0.1,0.1-0.1,0.2l-0.2,0.2l-0.1,0.2l-0.2,0.3l-0.1,0.2l-0.2,0.4c0,0,0,0.1-0.1,0.1
	s-0.2,0.4-0.3,0.6l-0.1,0.2c0,0.1-0.1,0.3-0.2,0.4l-0.1,0.3c0,0.1-0.1,0.3-0.1,0.4l-0.1,0.3c0,0.1-0.1,0.3-0.1,0.5
	c0,0.1,0,0.2-0.1,0.3s-0.1,0.5-0.2,0.7c0,0.1,0,0.2,0,0.3c0,0.2-0.1,0.4-0.1,0.5c0,0.1,0,0.2,0,0.4s0,0.3-0.1,0.5s0,0.3,0,0.4
	s0,0.4,0,0.6v0.4c0,0.3,0,0.7,0,1c-0.2,12,0.5,13.7,0.5,13.7c0.9,2.3,3,3.8,5.4,4.1c0.6,0,1.2,0,1.8-0.1c5.3-0.9,17.8-3.1,22.3-2.3
	c2.6,0.5,7.6-0.2,11-0.9l0.9-0.2l0.6,2l2-0.6l1.7,1l1.1,0.6c2,6.9,10.2,4.5,10.2,4.5l2,1.1l19.8,0.5c2.2,1.3,4.6,2.5,7,3.4
	c0.3,0.1,0.7,0.2,1,0.2c1.8,0.1,3.7,0.2,5.5,0.1c1.5,0,2.7-0.1,2.7-0.1s-0.2-5.4-0.5-11.4c6.1-0.2,12.3-0.7,18.3-1.5
	c10.6-1.9,15-11.5,16.6-16.6c0.5,2.1,0.8,4.2,1,6.4c0.4,1.9,1,3.7,1.6,5.5c0.6,1.5,1.3,2.8,2.3,4.1c7.8-2.7,3.1-6.7,1.4-8.4
	s1.1-3.2,1.1-3.2s2.2-1.4,2-2.8s-0.3-2.8,6.7-2.7C520,576.1,519.6,570.3,519.6,570.3z M411.3,505c0.1,0.6,1.1,6.9,1.9,8.5
	c0.3,1.1,0.3,2.2,0.2,3.4c-4.1-0.3-8.4-0.5-8.4-0.5c0.1,0.2,0.2,0.3,0.2,0.5l-0.6-0.2l-1-0.2L411.3,505L411.3,505z M396.2,529
	l7.1,1.1l0.6,0.1c-0.2,1.1-0.3,2.2-0.4,3.4c0,0.1,0.2,0.2,0.4,0.4c-0.1,0.6-0.1,1.1-0.1,1.7c0.1,0.6,3.5,1.8,7.3,2.8
	c-0.1,0.2-0.1,0.4-0.2,0.6l0,0c-3.4-1.8-8.7-2.6-9.3-3.9s-18.8-7.7-18.8-7.7s-0.7-0.3-1.8-0.9l4.8,0.9l1.3-0.1
	C390.1,528,393.2,528.6,396.2,529L396.2,529z"/>
<path class="st10" d="M496.2,574.7c0,0-2.8,17.2-17.3,19.7s-62.6,2-62.6,2s-27.5-4-37.5-27.2s-16.4-32.5-7.8-32.9
	s54.6,15.5,57.2,15.8S498.8,516.7,496.2,574.7z"/>
<path class="st11" d="M496.2,574.7c0,0-2.8,17.2-17.3,19.7s-62.6,2-62.6,2s-27.5-4-37.5-27.2s-16.4-32.5-7.8-32.9
	s54.6,15.5,57.2,15.8S498.8,516.7,496.2,574.7z"/>
<path class="st12" d="M367,593.8c0.9,2.3,3,3.8,5.4,4.1c0.6,0,1.2,0,1.7-0.1c5.3-0.9,17.7-3,22-2.2c2.6,0.5,7.5-0.2,11-0.9
	c2.3-0.4,4-0.8,4-0.8s-4.1-13.5-4.6-13.9s-18.3-11.1-18.3-11.1l-14.1-1l0,0c-1.9,0.3-3.6,1.3-4.8,2.8c-1.5,1.8-2.8,4.8-2.9,9.6
	C366.3,592.1,367,593.8,367,593.8z"/>
<path class="st13" d="M367,593.8c0.9,2.3,3,3.8,5.4,4.1c-1.4-1.8-2.7-3.6-3.8-5.6l0.1-9.9c-0.6-5.5,1.5-10.9,5.5-14.7l0,0
	c0,0-7.4,0.5-7.6,12.4S367,593.8,367,593.8z"/>
<path class="st14" d="M428.1,572.3l13.1-10.3l20.6-20.3l-5.6-0.3c-0.8,0.5-3.2,2.2-3.3,4.3c-0.1,2.5-5.6,0.2-8.4,1.6
	s-16.8,19.2-19.2,19.1s-4.4-1.2-5.4,0.5c0,0-0.1,0.1-0.1,0.1L428.1,572.3z"/>
<path class="st14" d="M369.4,570.6l1.4,0.7c10,4.3,22.3,13.2,23.2,14.8c0.6,1,7.7,5.3,13.2,8.6c2.3-0.4,4-0.8,4-0.8
	s-4.1-13.5-4.6-13.9s-18.3-11.1-18.3-11.1l-14.1-1l0,0C372.3,568.1,370.6,569.1,369.4,570.6z"/>
<path class="st12" d="M341.7,541.5c1.3,3.3,12.4,15.8,12.4,15.8s7,9.2,17,13.4s22.3,13.2,23.2,14.8c0.6,1,8.5,5.8,14.1,9.1l1.3,0.7
	l2.8,1.6l1.5,0.8c0,0,3.4-2.7,6.8-5.5s6.7-5.4,6.7-5.6c0.1-0.3,1.4-3.8,1.1-4c-0.2-0.1-0.9-1.5-2.1-3.1c-1.4-1.8-3.1-3.3-5.2-4.3
	c-3-1.5-5.3-4-6.7-7c0,0-0.5-0.3-1.1-0.8c-1.4-0.9-2.9-1.6-4.6-2c-2.2-0.3-6.4-4.8-6.4-4.8c-1.6-1.1-3-2.5-4-4.2
	c-1.1-2.2-16.8-13-18.3-14l38.2,24.5l9.1,5.9l13.1-10.3l20.6-20.3l-6.8-0.3c-10-0.4-27.8-1.1-30.1-0.6c-1.8,0.4-3.7,0.5-5.6,0.4
	c0,0-5.1,0.2-8.4-1.5s-8.6-2.6-9.3-3.9s-18.6-7.6-18.6-7.6s-24.5-13-33.2-5.3S340.4,538.3,341.7,541.5z"/>
<path class="st15" d="M420.7,466.9l3.1,10.5l4.1,23.6l14.9,1l4.3-7.2l4.3-7.2c0,0,2.7-9.5,4.6-18.8c1.7-8.2,2.8-16.1,1-16.9
	c-1.6-0.8-2.7-3.5-3.4-6.5c-0.1-0.4-0.2-0.7-0.2-1.1c-0.5-2.5-0.8-5-1-7.6c0,0-31.3-1.6-26.9,11.3c0.8,2.2,1.2,4.5,1.2,6.9
	c0,0.6,0,1.2-0.1,1.8C426.1,460.8,424,464.5,420.7,466.9z"/>
<path class="st16" d="M414.2,465.2l1.1,17.8l2.5,15.1l2.9,7l2.5,38.4c0,0,24.5,2.8,30.5,0c0.4-0.2,0.8-0.5,1.1-0.8
	c7.2-10.9,4.8-42.3,4.8-42.3l2.8-20.4l-1.8-10.5l-4.4-0.5l-3.4-0.4c0,0-0.8,0.9-1.9,2.4c-3,4-8.6,11.8-8.2,15.1
	c0.5,4.5-0.6,9-2.3,9.8s-3.1,1.9-3.5,0.7c-0.4-1-0.5-2.2-0.3-3.3c0.3-1.7-1.3-7-1.3-7s-2.7-6.2-2.5-8.8s-0.3-5.7-1.1-6.4
	s-1.9-1.4-1-4.7s-4-9.6-4-9.6L414.2,465.2z"/>
<path class="st14" d="M446.6,509.6l1,30.4l5.9,3.3c0.4-0.2,0.8-0.5,1.1-0.8c7.2-10.9,4.8-42.3,4.8-42.3l2.7-20.3l-1.8-10.5l-4.4-0.5
	c1.7-8.2,2.8-16.1,1-16.9c-1.6-0.8-2.7-3.5-3.4-6.5l0,0l-3.2,21.5c0,0,0.3,1.9,0.4,3.9c0.1,1.3,0,2.6-0.3,3.8
	c-0.7,1.8-0.2,5.1-0.2,5.1c-1.8,3.2-2.8,9.2-3.2,15C446.3,502.3,446.6,509.6,446.6,509.6z"/>
<path class="st17" d="M453.5,444.8c0,0,5.1,0.6,6.7,2.8s5.9,2.4,5.9,2.4s4.9,1.6,4.8,2s1.4,1,4.5,1.8c3.1,0.8,8.1,3.8,8.1,4.5
	s8,8.6,8,9.5s2.4,3.9,2.1,9.3s-0.6,12.2,0.6,13.3s0,5.5,0,5.5c-0.7,1-0.7,2.2-0.1,3.3c1,1.8-0.2,9.5-0.2,9.5l0.1,7.9
	c0,0-1.1,5,0.2,5.2s-0.2,2.4-0.2,2.4s-1.1,4.1,0.3,5.9s1.8,9.7,1.8,9.7l21.8,31.6c0,0,0.3,5.8-6.6,5.7c-6.9-0.1-6.8,1.3-6.6,2.6
	s-1.9,2.8-1.9,2.8s-2.8,1.4-1.1,3.2s6.3,5.7-1.4,8.3c-0.9-1.3-1.7-2.6-2.2-4.1c-0.7-1.8-1.2-3.6-1.6-5.5c0,0-0.7-7.7-2.1-8.7
	s-1.2-5.9-1.2-5.9s2-4-0.8-5.6s-44.1-24.5-44.1-24.5l-1-30.4c0,0-0.7-22.5,3.6-30c0,0-0.5-3.3,0.2-5.1s-0.1-7.7-0.1-7.7L453.5,444.8
	z"/>
<path class="st14" d="M426.9,457c0,0-10.2-2.1-13-0.7s-8.1,2.5-8.9,3.4s-2.9,0.2-4.7,5s-2,9.7-4.4,11.9s-3.6,3.8-3.7,5.4
	s0.3,2-0.6,2.5s-2.2,2.7-1.8,3.5s21.1,18.7,21.1,18.7s1,6.8,1.9,8.5s-1,25.5-3,27.1s13.8,1.5,13.8,1.5s0.7-15.6,1.3-16.4
	s-0.4-17.5-0.4-17.5s-0.1-14.2,1.2-18s1.2-16.3,1.2-16.3s1.2-7.5,2.6-9.3S426.9,457,426.9,457z"/>
<path class="st17" d="M426.6,456.7c0,0-10.2-2.1-13-0.7s-8.1,2.5-8.9,3.3s-2.9,0.2-4.7,5s-2,9.7-4.4,11.9s-3.6,3.8-3.7,5.4
	s0.3,2-0.6,2.5s-2.2,2.6-1.8,3.5s21.1,18.7,21.1,18.7s1,6.8,1.9,8.5s-1,25.5-3,27.1s13.7,1.5,13.7,1.5s0.7-15.6,1.3-16.4
	s-0.4-17.5-0.4-17.5s-0.1-14.2,1.2-18s1.2-16.3,1.2-16.3s1.2-7.5,2.6-9.3S426.6,456.7,426.6,456.7z"/>
<path class="st14" d="M425.5,448.1c0.8,2.2,1.2,4.5,1.2,6.9c10.3,3.1,21.3-1.3,26.7-10.6c-0.5-2.5-0.8-5-1-7.6
	C452.4,436.8,421.1,435.2,425.5,448.1z"/>
<path class="st15" d="M410,432c0,12.8,10.4,23.2,23.3,23.2c12.8,0,23.2-10.4,23.2-23.3c0-12.8-10.4-23.2-23.3-23.2
	c-11,0-20.4,7.7-22.7,18.4C410.2,428.8,410,430.4,410,432z"/>
<path class="st12" d="M395.1,485.9l-5.6,1.7c0.3,1.1-0.2,2.3-1.1,3c-1,0.7-1.5,1.8-1.4,3c0,0-0.6,2.2-2,2.8s-2.3,3.9-2.3,3.9
	l-4.7,5.4c0,0-1.7,1.4-1.4,2.1s-1.8,0.9-1.8,0.9l1.1,18.1l9.6,1.8l6-0.6l4.9-1.8l4.3-2.5l1.9-5l8.5-13L395.1,485.9z"/>
<path class="st15" d="M376.1,510.2c0,0-12.4-17.9-21.6-8.2s3.8,25.3,6.8,24.8s17.6-1.3,17.6-1.3L376.1,510.2z"/>
<path class="st14" d="M410.5,427.2c0.6,0.1,1.2,0.3,1.7,0.8c0.8,0.8,0.8,2.3,1.9,2.8c0.4,0.2,0.8,0.2,1.2,0.1
	c2.7-0.4,4.3-3.4,6.9-4.3c1.5-0.4,3.1-0.2,4.5,0.4c0.6,0.2,1.1,0.5,1.5,1c0.9,1.1,0.3,2.8,0.7,4.1c0.6,1.9,2.8,2.6,4.8,2.9
	s4.1,0.4,5.5,1.9c0.9,1.1,1.2,2.5,1,3.9c-0.1,0.5-0.1,1,0,1.5c0.5,1.5,3.2,1.3,3.9,0.1c0.5-0.9,0.4-1.6,1.5-1.8
	c0.9-0.1,1.7,0.1,2.5,0.4c2.1,0.7,4.3,1.1,6.4,1c5.5-11.6,0.5-25.5-11.2-31c-11.6-5.5-25.5-0.5-31,11.2
	C411.5,423.8,411,425.5,410.5,427.2L410.5,427.2z"/>
<path class="st12" d="M440,441.7c-0.1-0.5-0.1-1,0-1.5c0.2-1.4-0.1-2.8-1-3.9c-1.3-1.5-3.5-1.6-5.5-1.9s-4.2-1-4.8-2.9
	c-0.4-1.4,0.2-3-0.7-4.1c-0.4-0.5-0.9-0.8-1.5-1c-1.4-0.6-3-0.8-4.5-0.4c-2.6,0.8-4.2,3.9-6.9,4.3c-0.4,0.1-0.8,0-1.2-0.1
	c-1-0.5-1.1-2-1.9-2.8c-1.2-1.3-3.6-0.5-5.1-1.4c-0.9-0.8-1.5-1.8-1.6-3c-0.7-2.2-0.8-4.5-0.5-6.7c0.9-3.8,4.3-6.4,6.4-9.6
	c2-3,3.1-6.8,6.2-8.8s6.9-1.5,10.3-0.5c1.6,0.6,3.2,1,4.8,1.3c2.7,0.3,5.5-0.4,8.3-0.5c3.9-0.1,7.7,1,10.9,3.3
	c0.7,0.5,1.3,1.1,1.8,1.8c0.5,1,0.7,2.1,0.8,3.2c0.3,2.1,1,4.1,2.1,5.9c0.9,1.4,1.9,2.7,2.7,4.2c0.9,1.4,1.1,3.2,0.7,4.8
	c-0.3,0.8-0.8,1.6-1,2.5c-0.5,2,0.9,3.9,1.8,5.7c0.9,1.7,1.3,3.5,1.2,5.4c-0.1,1.9-1,3.7-2.4,4.9c-1.5,1-3.3,1.6-5.1,1.6
	c-2.2,0.1-4.5-0.3-6.6-1c-0.8-0.4-1.6-0.5-2.5-0.4c-1.2,0.2-1,1-1.5,1.8C443.2,443,440.6,443.2,440,441.7z"/>
<path class="st14" d="M427.5,572.9l13.1-10.3l20.6-20.3l-6.8-0.3c-0.8,0.7-1.3,1.7-1.4,2.8c-0.1,2.5-5.6,0.2-8.4,1.6
	s-16.8,19.2-19.2,19.1s-4.4-1.2-5.4,0.5l-0.1,0.1c-0.4,0.5-0.9,0.8-1.5,0.9L427.5,572.9z"/>
<path class="st12" d="M401.1,572.2l6.6,21l1,3.3l3.1-0.9l6.9-1.9l30.8-8.5c3.9-0.2,7.7-1.2,11.1-3c5.8-3.3,12.5-4.7,19.1-4.2
	c4.1,0.4,8.6-1.4,12.4-8.3c0,0,8.5-25.2-13-32.4s-22.6,3.8-22.6,3.8l-0.3,0.2c-0.8,0.5-3.2,2.2-3.3,4.3c-0.1,2.5-5.6,0.2-8.4,1.6
	s-16.7,19.3-19.2,19.2s-4.4-1.2-5.4,0.5c0,0-0.1,0.1-0.1,0.1c-0.8,1-3,1.3-4.5,1.3c-0.8,0-1.4,0-1.4,0l-0.2,0.1l-1.6,0.5
	L401.1,572.2z"/>
<path class="st14" d="M402.8,531.3l3.2,0.5l1.3-13.1c0,0-1.5-0.2-3.3-0.6C404.5,519.9,403.4,527,402.8,531.3z"/>
<path class="st14" d="M485.9,470.1c0,0,9.5-2.7,7.1,24.1S473.2,538,473.2,538s-20.1,8.8-29.2,7.4s-15.6-1.7-15.6-1.7
	c-2.8-1.4-6-2.3-9.1-2.4c-5.1-0.2-15.8-3.3-16-4.4s2.6-16,1.4-17.1c0,0,14.2,0.6,15.6,1.6s3.5,0.3,5,0s6.2-4.3,15.5-0.8
	c0,0,3.1,0.3,4.4-0.5c1-0.5,2.1-0.5,3.2-0.2c0.8-0.3,1.5-0.6,2.2-1.1c0.3-0.4,2.8,0,2.8,0c0.5,0.3,1.2,0,1.4-0.5
	c0-0.1,0.1-0.1,0.1-0.2c0.3-0.8,0.8-1.6,1.4-2.2c0,0,2.8-15.5,7.9-21.2c0.8-0.7,1.3-1.8,1.1-3C464.9,490,473.7,466.8,485.9,470.1z"
	/>
<path class="st14" d="M412.3,568.8l13.4,16.3l0.1-0.1c0.1-0.3,1.4-3.8,1.1-4s-2.6-5.3-7.3-7.4c-2.4-1.2-4.4-3-5.7-5.2L412.3,568.8z"
	/>
<path class="st14" d="M412.4,597l1.5,0.8c0,0,3.4-2.7,6.8-5.5s6.7-5.4,6.7-5.6c0.1-0.3,1.4-3.8,1.1-4c-0.2-0.1-0.9-1.5-2.1-3.1
	c-9.1-2.5-3.3,3.8-2.5,4.1c0,0-11.1-2.5-11.7,9.5C412.1,594.4,412.1,595.7,412.4,597z"/>
<path class="st12" d="M423.6,602.1l1.9,1.1l19.6,0.5c2.2,1.3,4.5,2.5,6.9,3.3c0.3,0.1,0.7,0.2,1,0.2c1.8,0.1,3.6,0.2,5.5,0.1
	c1.5,0,2.7-0.1,2.7-0.1s-0.9-24.7-1.6-27.3c-0.3-1.3-2-1-3.6-0.3c-1.2,0.5-2.4,1.1-3.5,1.8c0,0-8.3,0.8-9.7,1.5s-5.1-0.4-7.4,0
	s-6.5-2.8-6.5-2.8c-11.4-3.8-5,3.3-4.2,3.6c0,0-11.1-2.5-11.7,9.5S423.6,602.1,423.6,602.1z"/>
<path class="st18" d="M452,592.5c0.2,5.1,4.2,11.5,6.6,14.8c1.5,0,2.7-0.1,2.7-0.1s-0.9-24.7-1.6-27.3c-0.3-1.3-2-1-3.6-0.3
	C454.1,583.3,451.8,588.4,452,592.5z"/>
<path class="st14" d="M452,592.5c0.2,5.1,4.2,11.5,6.6,14.8c1.5,0,2.7-0.1,2.7-0.1s-0.9-24.7-1.6-27.3c-0.3-1.3-2-1-3.6-0.3
	C454.1,583.3,451.8,588.4,452,592.5z"/>
<path class="st13" d="M448.7,593.2c1.4,4.9,1.3,10.5,3.5,13.8c0.3,0.1,0.7,0.2,1,0.2c1.8,0.1,3.6,0.2,5.5,0.1c1.5,0,2.7-0.1,2.7-0.1
	s-0.9-24.7-1.6-27.3c-0.3-1.3-2-1-3.6-0.3c-1.2,0.5-2.4,1.1-3.5,1.8C452.5,581.4,446.9,586.9,448.7,593.2z"/>
<path class="st14" d="M381,543.1c0,0,9.7,3.2,18,14.4L381,543.1z"/>
<g class="st19">
	<path d="M460.2,421.1l-0.1,0.2c-0.1,0.3-0.2,0.6-0.3,0.8C459.9,421.8,460,421.4,460.2,421.1z"/>
	<path d="M405,416.2c0.2-0.7,0.4-1.4,0.8-2c0,0.2-0.1,0.3-0.1,0.5c-0.4,2.3-0.2,4.6,0.5,6.7c0.1,1.2,0.7,2.2,1.6,3
		c1.5,1,3.9,0.1,5.1,1.4c0.8,0.8,0.8,2.3,1.9,2.8c0.4,0.2,0.8,0.2,1.2,0.1c2.7-0.4,4.3-3.4,6.9-4.3c1.5-0.4,3.1-0.3,4.5,0.4
		c0.6,0.2,1.1,0.5,1.5,1c0.9,1.1,0.3,2.8,0.7,4.1c0.6,1.9,2.8,2.6,4.8,2.9s4.1,0.4,5.5,1.9c0.9,1.1,1.2,2.5,1,3.9
		c-0.1,0.5-0.1,1,0,1.5c0.5,1.5,3.2,1.3,3.9,0.1c0.5-0.9,0.4-1.6,1.5-1.8c0.9-0.1,1.7,0.1,2.5,0.4c2.1,0.7,4.3,1.1,6.6,1
		c1.8,0,3.6-0.5,5.1-1.6c0.7-0.5,1.2-1.2,1.6-1.9c-0.3,1.4-1.1,2.6-2.2,3.5c-1.5,1-3.3,1.6-5.1,1.6c-2.2,0.1-4.5-0.3-6.6-1
		c-0.8-0.4-1.6-0.5-2.5-0.4c-1.2,0.2-1,1-1.5,1.8c-0.7,1.2-3.3,1.4-3.9-0.1c-0.1-0.5-0.1-1,0-1.5c0.2-1.4-0.1-2.8-1-3.9
		c-1.3-1.5-3.5-1.6-5.5-1.9s-4.2-1-4.8-2.9c-0.4-1.4,0.2-3-0.7-4.1c-0.4-0.5-0.9-0.8-1.5-1c-1.4-0.6-3-0.8-4.5-0.4
		c-2.6,0.8-4.2,3.9-6.9,4.3c-0.4,0.1-0.8,0-1.2-0.1c-1-0.5-1.1-2-1.9-2.8c-1.2-1.3-3.6-0.5-5.1-1.4c-0.9-0.8-1.5-1.8-1.6-3
		C404.8,420.8,404.7,418.4,405,416.2z"/>
</g>
<path class="st14" d="M461.7,497.5c-1.9,2.5-4,4.8-5.6,7.5c-1.8,2.6-2.7,5.7-2.5,8.9c1.7-1.8,2.5-4.2,3.6-6.4
	c1.8-3.7,4.5-6.9,6.8-10.3c0.4-0.7,3.3-4.4,1.8-4.6C464.7,492.5,462.4,496.7,461.7,497.5z"/>
<path class="st3" d="M410.3,456.5l20.4,38.5c0.6,1.1-1,3.2-3.7,4.6l-101.7,53.8c-2.6,1.4-5.3,1.6-5.9,0.5L299,515.3
	c-0.6-1.2,0.9-3.5,3.6-4.9l101.7-53.8C406.9,455.3,409.7,455.3,410.3,456.5z"/>
<g class="st6">
	<path class="st7" d="M410.3,456.5l20.4,38.5c0.6,1.1-1,3.2-3.7,4.6l-101.7,53.8c-2.6,1.4-5.3,1.6-5.9,0.5L299,515.3
		c-0.6-1.2,0.9-3.5,3.6-4.9l101.7-53.8C406.9,455.3,409.7,455.3,410.3,456.5z"/>
</g>
<rect x="350.9" y="486.9" transform="matrix(0.884 -0.4675 0.4675 0.884 -183.9198 234.6255)" class="st4" width="59.9" height="2.1"/>
<rect x="353.3" y="491.4" transform="matrix(0.884 -0.4675 0.4675 0.884 -185.7738 236.2825)" class="st8" width="59.9" height="2.1"/>
<rect x="355.7" y="496" transform="matrix(0.884 -0.4675 0.4675 0.884 -187.6195 237.9352)" class="st8" width="59.9" height="2.1"/>
<rect x="358.1" y="500.6" transform="matrix(0.884 -0.4675 0.4675 0.884 -189.4735 239.5922)" class="st8" width="59.9" height="2.1"/>
<path class="st8" d="M324.9,511c-6.9,3.7-9.6,12.3-5.9,19.2c2.2,4.2,6.4,7,11.2,7.5l-1.1-2.1c-0.8-1.4-0.3-3.2,1-4.2
	c2.6,1.7,6.1,1,7.8-1.6c0.6-0.9,0.9-2,0.9-3c1.5-0.6,3.2,0.1,4,1.5l1.1,2.2c3.8-6.8,1.4-15.5-5.5-19.3
	C334.3,508.8,329.2,508.8,324.9,511L324.9,511z M338.6,523.4c0,0.1,0,0.2,0,0.3c-0.1,0.1-0.2,0.2-0.3,0.3l-0.3,0.1
	c0.6,3-1.3,6-4.4,6.7s-6-1.3-6.7-4.4c-0.1-0.4-0.1-0.9-0.1-1.3h-0.1c-0.9-0.4-1.4-1.4-1-2.4c0.2-0.4,0.5-0.7,0.8-0.9
	c0.9-0.9,1.5-2.1,1.6-3.4c0.1,0.2,0.3,0.5,0.4,0.8c0.2-0.7,0.9-1.1,1.5-0.9c0.2,0.1,0.5,0.2,0.7,0.3c0.2,0,0.4,0,0.6-0.1l1.3-0.5
	c0.8-0.6,2-0.4,2.6,0.4c0.8,0.7,1.6,1.4,2.2,2.2C338.2,521.4,338.5,522.4,338.6,523.4L338.6,523.4z"/>
<path class="st15" d="M368.1,514c-0.1,13.4,27.6,16.3,27.6,16.3l7.1,1.1l3.2,0.5l1.3-13.1c0,0-1.5-0.2-3.3-0.6
	c-2.7-0.6-6.2-1.7-6.9-3.2C395.9,512.3,368.2,500.5,368.1,514z"/>
<path class="st17" d="M485.6,468c0,0,9.5-2.7,7.1,24.1s-19.8,43.8-19.8,43.8s-20.1,8.8-29.2,7.4s-15.6-1.7-15.6-1.7
	c-2.8-1.4-6-2.3-9.1-2.4c-5.1-0.2-15.8-3.3-16-4.4s2.6-16,1.4-17.1c0,0,14.2,0.6,15.6,1.6s3.5,0.3,5,0s6.2-4.4,15.5-0.8
	c0,0,3.1,0.3,4.4-0.5c1-0.5,2.1-0.5,3.2-0.2c0.8-0.3,1.5-0.6,2.2-1.1c0.3-0.4,2.8,0,2.8,0c0.5,0.3,1.2,0.1,1.4-0.5
	c0-0.1,0.1-0.2,0.1-0.2c0.3-0.8,0.8-1.6,1.4-2.2c0,0,2.8-15.4,7.9-21.2c0.8-0.7,1.3-1.8,1.1-2.9C464.6,487.9,473.5,464.8,485.6,468z
	"/>
<path class="st3" d="M878.2,136.1v56c0,1.7-3.1,3-7,3H723.4c-3.9,0-7-1.4-7-3v-56c0-1.7,3.1-3.4,7-3.4h147.8
	C875,132.8,878.2,134.5,878.2,136.1z"/>
<g class="st19">
	<path class="st7" d="M860.9,146.3v56c0,1.7-3.1,3-7,3H706.1c-3.9,0-7-1.4-7-3v-56c0-1.7,3.1-3.4,7-3.4h147.8
		C857.7,143,860.9,144.7,860.9,146.3z"/>
</g>
<path class="st3" d="M878.2,136.1v56c0,1.7-3.1,3-7,3H723.4c-3.9,0-7-1.4-7-3v-56c0-1.7,3.1-3.4,7-3.4h147.8
	C875,132.8,878.2,134.5,878.2,136.1z"/>
<g class="st6">
	<path class="st7" d="M878.2,136.1v56c0,1.7-3.1,3-7,3H723.4c-3.9,0-7-1.4-7-3v-56c0-1.7,3.1-3.4,7-3.4h147.8
		C875,132.8,878.2,134.5,878.2,136.1z"/>
</g>
<rect x="787.4" y="152.8" class="st4" width="77" height="2.7"/>
<rect x="787.4" y="159.4" class="st8" width="77" height="2.7"/>
<rect x="787.4" y="166" class="st8" width="77" height="2.7"/>
<rect x="787.4" y="172.6" class="st8" width="77" height="2.7"/>
<path class="st8" d="M748.5,146.8c-10.1,0-18.3,8.1-18.3,18.2c0,6.1,3.1,11.9,8.2,15.3v-3.1c0-2.1,1.6-3.9,3.7-4.1
	c1.9,3.5,6.3,4.8,9.8,2.9c1.2-0.7,2.2-1.7,2.9-2.9c2.1,0.3,3.6,2,3.7,4.1v3.2c8.5-5.5,10.9-16.8,5.4-25.2
	C760.4,149.9,754.7,146.8,748.5,146.8z M756.5,169.1c-0.1,0.3-0.4,0.5-0.8,0.5c-0.1,0-0.2,0-0.4,0c-1.1,3.8-5.2,6-9,4.9
	c-3.1-0.9-5.2-3.7-5.2-6.9c0-1.2,0.3-2.5,0.9-3.6l-0.1,0c-0.8-1-0.7-2.5,0.2-3.4c0.5-0.3,1-0.4,1.5-0.5c1.6-0.5,2.9-1.5,3.8-2.9
	c0,0.4,0,0.7,0,1.1c0.6-0.7,1.6-0.7,2.3-0.1c0,0,0,0,0,0c0.2,0.2,0.4,0.5,0.7,0.7c0.2,0.1,0.5,0.2,0.8,0.2l1.8,0.2
	c1.3-0.1,2.5,0.7,2.8,2c0.5,1.2,0.9,2.5,1.2,3.9C757.3,166.5,757.1,167.9,756.5,169.1L756.5,169.1z"/>
<linearGradient id="SVGID_2_" gradientUnits="userSpaceOnUse" x1="-229.028" y1="-72.8309" x2="-229.028" y2="369.3208" gradientTransform="matrix(0.9993 -3.838781e-02 -3.838781e-02 -0.9993 1047.3677 525.9055)">
	<stop  offset="0" style="stop-color:#808080;stop-opacity:0.25"/>
	<stop  offset="0.54" style="stop-color:#808080;stop-opacity:0.12"/>
	<stop  offset="1" style="stop-color:#808080;stop-opacity:0.1"/>
</linearGradient>
<path class="st20" d="M925,594.2c-1.4-5-2.3-9.4-2.3-9.4s0.1-5.5-2.6-9.5l0-1.4l0,0l-0.4-10.2c0.6-1.9,1.4-3.7,2.4-5.4
	c1.7-3.3-0.6-14.8-0.6-14.8s-7.4-16.2-6.2-26.7s-15.7-45.8-15.7-45.8c0-3.5,0.3-6.9,1.1-10.3c0.1-0.7,0.2-1.4,0.1-2.2
	c0-0.1,0-0.2,0-0.3c0,0,0,0,0,0.1c-0.5-6.9-6.4-19.5-6.4-19.5l-0.2-24.6c0,0,2.9-14.6-3.5-33.9c-2.2-6.7-3.7-12.1-4.7-16.3
	c-0.1-0.5-0.2-0.9-0.3-1.4c11.6-2.2,20.4-4,20.4-4s-7.8-28-12.6-32.8s-9-20.2-9-20.2s-3.1-19.9,0.5-25.9s3.7-16.2,3.7-16.2
	s8.5-6.7,9.5-9.6c1-2.9,2.6-9.3,2.4-12.7s-1.3-6.3-1-8.1s-2.9-8.4-1.5-11.6c0.3-1,0.5-2,0.5-3.1v-0.1c-0.1-2.8-0.5-5.5-1.1-8.3
	c-2.6-2-5.6-3.5-8.9-4.3l-0.2-0.8l-0.6-2c-0.3-0.2-0.6-0.3-0.9-0.5v-0.7l-0.2-2.9l1.1-6.5c2.3-11.3-12.8-12.4-12.8-12.4
	c-1-1.7-2.5-3-4.4-3.5c-3.1-1,0.1,16.9,1.6,18c1.1,0.8,4.6,6.3,6.3,9l0,0l0.3,0.4c-0.2,0.2-0.5,0.5-0.7,0.8l0.7,3.9l0.1,0.6
	c-0.9,1.3-1.7,2.7-2.2,4.2c0,0,2.8,2.9,2.4,6.3s1.1,7.5,1.2,7.7c-0.2-0.2-2.2-2.2-4.1-1.6s-7.2,2.4-7.2,2.4s-4,0.9-3.6,1.7
	S863,235,863,235l-11.2-9.8c-0.1-0.3-0.2-0.6-0.3-0.9c-0.5-1.4-0.9-2.9-1.1-4.5c1.2-0.3,2.3-0.7,3.4-1.2c1.1-0.4,2.1-1.1,2.9-2
	c1-1.3,1.2-3.1,1.6-4.7c0.7-3.2,2.5-6,3.7-9.1c2-5.1,2.5-10.7,1.5-16.1c-0.2-1.7-0.9-3.3-1.8-4.6c-1.9-2.4-5.1-3.2-7.5-5.1
	s-4-4.7-6.8-6.1c-2.5-1.2-5.5-1-8.2-0.4c-5.4,1.1-10.5,3.2-15.1,6.1c-1.5,1-3.2,2.1-5,1.9c-1.6-0.2-2.7-1.4-3.8-2.6c0,0,0-0.1,0-0.1
	l-0.1-0.1c-1,2.6-1.5,5.4-1.4,8.1c0,0.4,0,0.9,0.1,1.3c0,0.1,0,0.3,0,0.5c0,0.1,0,0.3,0,0.4l0,0c0,0.2,0,0.4-0.1,0.6
	c-0.2,0.6-0.6,1.1-1,1.5c-0.3,0.4-0.6,0.8-0.8,1.2c0-0.1,0.1-0.3,0.1-0.5c-0.7,1-1,2.2-1,3.5c0,0.9,0.3,1.8,0.9,2.4
	c0.6,0.5,1.2,1,1.8,1.4c-0.2,1.2-0.2,2.4-0.2,3.6c0.3,7.3,4.4,13.9,10.9,17.4c0.1,0.3,0.3,0.6,0.4,0.9c1.5,3.6,2.7,7.8,2.4,11.7
	c0,0.3-0.1,0.6-0.1,0.9s-0.3,0.3-0.4,0.5l0,0c0,0-17.8,0.9-22.2-2.8s-10.2,9.7-10.2,9.7s-6.3,1.5-7.7,0.3s-8.8,0.2-8.8,0.2
	c-3.2-2.6-7.2-3.9-11.3-3.6c-2.6-1.8-5.4-3.2-8.4-4.2l0,0l-0.2-0.1l0,0c-1.3-0.4-2.7-0.5-4-0.4c0,0-9-6.9-11.8-10.7
	s-15.4-17.8-15.5-17.8l-0.1-0.7l-0.2-2.1c-0.4,0.1-0.7,0.1-1.1,0.1l-0.3-0.7c-0.8-2-1.7-4-2.8-5.8c0,0-0.1-2.7,0.7-3.4
	s-0.7-10.4-0.7-10.4s-8.6-18.2-15.2-4.1c0,0-13,9.4-1.4,19.4c0,0,4.6,2,5.3,3.7c0.5,1.1,2.1,4.2,3.2,6.2c0.2,0.3,0.3,0.6,0.5,0.9
	l-0.1,0.1l0.2,1.7l0.1,0.7c-2.1,1.3-3.5,2.5-3.1,3.4c0.7,1.5,1.2,3.1,1.5,4.7c0,0,16.3,18.9,18.6,27.1c0,0,42.6,23.2,56.4,24.4
	l-1.8,12.4c-0.2,3.4-0.3,6.7-0.2,10.1c0.3,2.7-1.1,14.7-1.1,14.7s-1.7,17.8-3.6,20.3s-1.2,13.1-1.2,13.1c-0.3,5.1-1,10.2-2.2,15.1
	c-1.8,6.8,0,15,0,15s-6.3,16.2,9.9,4.8c0,0,8.1-0.8,17.5-1.5c0,0.3,0,0.6,0,0.9c0,1.2,0.1,2.5,0.1,3.9c0.2,9.1,0.7,21.7,1.4,31.2
	c1.4,16.8,7.8,49.8,7.8,49.8l0.6,16.7c-0.3,1.6-0.4,3.2-0.3,4.8c0.1,5.9,1.9,11.7,5.1,16.6l1.7,11.1c0,0,3.3,7.2,3.5,11.6
	c0,0.4,0,0.7-0.1,1.1c-0.1,0.6-0.1,1.1-0.1,1.7c0,5.1,3.5,17,3.5,17s0.7,12.2,2.5,12.8c1.6,0.5-1.8,7.1-2.8,9c0-0.1-0.1-0.2-0.1-0.3
	c-0.1,0.3-0.2,0.4-0.2,0.4c-0.3,1-0.5,2.1-0.5,3.1c-0.1,1.7,0.7,3.4,2.2,4.2c3.5,2,5.5,3.7,2.6,4.5c-1.1,0.2-2.1,0.5-3.2,0.8
	c0-0.1-0.1-0.3-0.2-0.4c-0.8,0.4-1.3,1.3-1.1,2.2c0.1,1.4,0.5,2.9,1.3,4.1c3.2,6.4,5.3,8.8,5.3,8.8l1.4-0.2
	c-0.2,0.5-0.4,1.1-0.8,1.5c-0.5,0.8-1.2,1.4-2,1.9c-0.7,0.5-1.6,0.8-2.5,1c-2,0.1-3.9,1.1-5.1,2.7c-1.7,2.4-2.8,5.7,1,8.4l13.2,4
	c0,0,22.6,2.1,21.2-2.9s-2.3-9.4-2.3-9.4c0-3.1-0.8-6.1-2.2-8.9c-0.2-0.4-0.5-0.9-0.8-1.3l0.8-0.1c0,0,1.2-11.2,3.3-13.4
	c0.5-0.5,0.6-0.9,0.5-1.2c0.2-0.6-0.4-1-1.1-1.1c0,0.1-0.1,0.3-0.1,0.4c-0.7-0.1-1.5-0.2-2.2-0.2c0,0-1-5.8,1.3-8
	c0.4-0.5,0.5-1.1,0.4-1.8c0-0.8-0.1-1.6-0.3-2.4c0,0-0.1,0.1-0.1,0.1c-1.4-5.3-5.8-13.5-5.8-13.5s-0.4-5.3,1-7.5s-1.3-28.8-1.3-28.8
	s0.1-12.9-1.8-18.9s1.5-13.2,1.5-13.2s0-0.1-0.1-0.4v-0.1c0,0-0.1-0.8-0.3-2c0,0,0,0.1,0,0.1c-0.5-3.4-1.4-9.6-2-12.4
	c-0.9-4-0.7-23.5-0.7-23.5l3-8.4l6.4,14.1l7,18.9c0,0,3.2,3.9,3.5,8c0,0.2,0,0.4,0,0.6c0,0.4,0,0.9,0,1.3c0,2.4,0.7,4.8,2.2,6.7
	c0,0,2,9,4.6,11.2s2.8,6.6,2.8,6.6s3.6,13,5.2,15.2c1.3,1.9,1.6,7.2,1.6,8.8l0,0c0,0.3,0,0.5,0,0.5s0.6,4.7,0.8,8.6c0,0.5,0,1,0,1.4
	c0,0,0-0.1,0-0.1c0,1.1-0.1,2.1-0.3,3.2c0,0.1,0,0.1,0,0.2c0-0.2,0-0.5,0-0.7c-0.5,2.7-0.7,5.4-0.6,8.2c0.1,4.7,1,10.3,4,13.4
	c5.2,5.5,8.2,4.6,8.2,4.6s-2.1,7.2-5,8.7c-0.1,0.1-0.2,0.1-0.3,0.2c0-0.1-0.1-0.3-0.1-0.4c-0.6,0.7-0.9,1.7-0.8,2.7
	c-0.1,3.1,2.1,8.1,4,10.3c0.7,0.6,1.6,1.1,2.5,1.3c-0.1,0.1-0.3,0.2-0.4,0.3c-0.3,0.2-0.7,0.4-1,0.5c-0.5,0.2-1,0.4-1.5,0.4
	c-2,0.1-3.9,1.1-5.1,2.7c-1.7,2.4-2.8,5.7,1,8.4l13.2,4C903.9,597.3,926.4,599.2,925,594.2z"/>
<path class="st21" d="M839.5,605.9l-12.8-4c-3.6-2.7-2.6-6-0.9-8.4c1.2-1.6,3-2.6,4.9-2.7c0.9-0.2,1.7-0.5,2.4-1
	c0.8-0.5,1.5-1.1,1.9-1.9c0.9-1.5,1.3-3.2,1.3-4.9c0,0,13.7-4.6,17.7-0.7c0.7,0.7,1.3,1.5,1.8,2.4c1.4,2.8,2.1,5.8,2.1,8.9
	c0,0,0.9,4.4,2.2,9.4S839.5,605.9,839.5,605.9z"/>
<path class="st21" d="M901.1,597.3l-12.8-4c-3.6-2.7-2.6-5.9-0.9-8.3c1.2-1.6,3-2.6,4.9-2.7c0.5-0.1,1-0.2,1.4-0.5
	c0.3-0.1,0.7-0.3,1-0.5c3.5-2.1,3.2-6.8,3.2-6.8s13.7-4.6,17.7-0.7c0.5,0.5,1,1.1,1.4,1.8c2.5,4,2.5,9.5,2.5,9.5s0.9,4.4,2.2,9.4
	S901.1,597.3,901.1,597.3z"/>
<path class="st14" d="M853.9,582.3c0.7,0.7,1.3,1.5,1.8,2.4l0,0l-20.7,3.2c0.9-1.5,1.3-3.2,1.3-4.9
	C836.2,583,849.9,578.4,853.9,582.3z"/>
<path class="st14" d="M916.9,575.4l0.2,3.9c-3,5.5-18.7,4.9-23.4,2.4c0.3-0.1,0.7-0.3,1-0.5c3.5-2.1,3.2-6.8,3.2-6.8
	s13.7-4.6,17.7-0.7C916.1,574.2,916.5,574.8,916.9,575.4z"/>
<path class="st12" d="M918.8,558.6c-0.9,1.7-1.7,3.5-2.3,5.4l0.5,14c-3.3,6-21.8,4.7-24.4,1.7s-5.6-11.3-2.8-12.8s4.8-8.7,4.8-8.7
	s-3,0.8-8-4.7s-4.1-18.1-3.3-21.1s-0.5-13.1-0.5-13.1s-0.1-7.1-1.6-9.3s-5-15.2-5-15.2s-0.2-4.4-2.7-6.6s-4.5-11.2-4.5-11.2
	c-1.5-2.2-2.3-4.9-2.1-7.5c0.4-4.4-3.4-9.1-3.4-9.1l-6.8-18.9l-6.2-14.1l-2.8,8.5c0,0-0.1,19.5,0.7,23.5s2.3,14.8,2.3,14.8
	s-3.3,7.2-1.4,13.2s1.8,18.9,1.8,18.9s2.6,26.6,1.3,28.8s-1,7.5-1,7.5s7.8,15.3,5.6,17.5s-1.3,8-1.3,8s5-0.2,2.9,2
	s-3.2,13.4-3.2,13.4l-21.3,3.3c0,0-2.1-2.4-5.1-8.8s0.3-5.8,3.1-6.7s1-2.5-2.5-4.5s-1.7-6.8-1.7-6.8s4.8-8.9,3-9.5
	s-2.4-12.8-2.4-12.8s-4.1-14.4-3.4-18.3S822,506,822,506l-1.7-11.1c-4-6.2-5.7-13.6-4.7-20.9l-0.6-17.2c0,0-6.2-33-7.6-49.8
	c-0.9-10.7-1.3-25.4-1.5-34.6c-0.1-5.1-0.2-8.5-0.2-8.5l76.1-10.9c0.3,3.8,0.9,7.6,1.8,11.3c0.9,4.2,2.4,9.5,4.5,16.3
	c6.2,19.2,3.4,33.9,3.4,33.9l0.2,24.6c0,0,7.3,16.2,6.2,21.9c-0.7,3.4-1,6.8-1,10.3c0,0,16.4,35.3,15.2,45.8s6,26.7,6,26.7
	S920.4,555.3,918.8,558.6z"/>
<path class="st13" d="M871.5,468.1l23.1-4C894.7,464.1,882,478.1,871.5,468.1z"/>
<path class="st14" d="M890.4,441.5c0,0,1.1,8.2-3.8,11.5C886.6,453,895.6,451.3,890.4,441.5z"/>
<path class="st14" d="M888,415.4c0,0-18.8,16.8-26,15.7S888,415.4,888,415.4z"/>
<path class="st14" d="M843,476.8c0,0-14.6,3.9-14.8,9.9S843,476.8,843,476.8z"/>
<path class="st13" d="M849.1,550.3c0,0-20.7,4.7-14.7,7.1s15.8,4.2,15.8,4.2S857,561.7,849.1,550.3z"/>
<g class="st22">
	<path d="M830.4,561.8c-1.1-0.6-1.8-1.7-2-3c-0.1,0.2-0.2,0.4-0.2,0.4s-1.8,4.8,1.7,6.8c0.4,0.2,0.8,0.5,1.1,0.7
		c0.6-0.1,1.3-0.3,1.9-0.4C835.7,565.5,833.8,563.8,830.4,561.8z"/>
	<path d="M857.2,559.4c0.5-0.5,0.5-1.9,0.1-3.6c-0.8,1.6-1.1,3.4-1,5.2C856.4,560.3,856.7,559.8,857.2,559.4z"/>
	<path d="M850.6,471.5c-0.7,2.1-1.1,4.3-1.2,6.6c0.3-1.6,0.8-3.1,1.5-4.5C850.9,473.6,850.8,472.8,850.6,471.5z"/>
	<path d="M898,460.4c0.1-0.6,0.2-1.3,0.1-1.9c-0.2,1.3-0.3,2.6-0.4,3.6C897.8,461.6,897.9,461,898,460.4z"/>
	<path d="M852.5,534.4c0.4-1.3,0.5-2.6,0.4-3.9c-0.6,1.6-0.9,3.3-0.8,5C852.1,535.1,852.3,534.8,852.5,534.4z"/>
	<path d="M858.2,567.6c-1,3.6-1.6,7.3-2,11l-21.3,3.3c0,0-2-2.4-5.1-8.8c-0.3-0.6-0.5-1.1-0.7-1.5c-1.3,0.6-1.7,2,0.1,5.8
		c3.1,6.4,5.1,8.8,5.1,8.8l21.3-3.3c0,0,1.2-11.2,3.2-13.4C859.8,568.3,859.1,567.8,858.2,567.6z"/>
	<path d="M828.7,536.9c0,0,0.7,12.2,2.4,12.8l0,0c0.8-2,1.3-4,0.5-4.3c-1.8-0.6-2.4-12.8-2.4-12.8s-4.1-14.4-3.4-18.3
		s-3.3-13.2-3.3-13.2l-1.7-11.1c-4-6.2-5.7-13.6-4.7-20.9l-0.7-17.2c0,0-6.2-33-7.6-49.8c-0.9-10.7-1.3-25.4-1.5-34.6
		c0-1.7-0.1-3.1-0.1-4.4l-0.6,0.1c0,0,0,3.4,0.2,8.5c0.2,9.2,0.6,23.8,1.5,34.6c1.4,16.8,7.6,49.8,7.6,49.8l0.7,17.2
		c-1,7.3,0.7,14.7,4.7,20.9l1.7,11.1c0,0,4.1,9.2,3.3,13.2S828.7,536.9,828.7,536.9z"/>
	<path d="M893.2,574.8c-1.8-2.4-3.1-5.3-3.7-8.3c-2.1,2,0.7,9.6,3.2,12.5c2.6,3.1,21.1,4.3,24.4-1.6l-0.1-3.4
		C912.3,579,895.6,577.7,893.2,574.8z"/>
	<path d="M919.3,553.8c-0.9,1.7-1.7,3.5-2.3,5.4l0.1,2.5c0.4-0.9,0.9-2.2,1.6-3.6c0.5-1.4,0.7-2.9,0.6-4.4L919.3,553.8z"/>
	<path d="M893.6,557.6c0.6-1.4,1.2-2.8,1.6-4.3c0,0-3,0.8-8-4.7c-3.6-4-4.1-11.8-3.8-16.8c-0.8,3-1.7,15.7,3.3,21.1
		C889.9,556.5,892.3,557.4,893.6,557.6z"/>
	<path d="M882.9,518.7c0.4,3.5,0.7,7,0.8,10.5c0.1-0.6,0.2-1.1,0.3-1.7c0.8-3-0.5-13.1-0.5-13.1s-0.1-7.1-1.6-9.3s-5-15.2-5-15.2
		s-0.2-4.4-2.7-6.6s-4.5-11.2-4.5-11.2c-1.5-2.2-2.3-4.9-2.1-7.5c0.4-4.4-3.4-9.1-3.4-9.1l-6.8-18.9l-6.2-14.1l-2.9,8.4
		c0,0,0,1,0,2.7l2.3-6.8l6.2,14.1l6.7,18.9c0,0,3.7,4.6,3.4,9.1c-0.2,2.7,0.5,5.3,2.1,7.5c0,0,1.9,9,4.5,11.2s2.7,6.6,2.7,6.6
		s3.5,13,5,15.2S882.9,518.7,882.9,518.7z"/>
</g>
<path class="st23" d="M885.2,192.9l-1.1,6.5l0.2,2.9l0.1,2.1l-7.3,1l-0.9-1.5l0,0c-1.6-2.7-5-8.2-6.1-9c-1.4-1.1-4.5-19-1.6-18
	c1.8,0.6,3.3,1.9,4.3,3.6C872.8,180.4,887.4,181.6,885.2,192.9z"/>
<path class="st14" d="M884.5,204.4l-7.3,1l-0.9-1.5l0,0c2-2.4,5.3-3.1,8.1-1.7L884.5,204.4z"/>
<path class="st24" d="M886.4,207.8l-9.6,2.6l-0.3-1.4l-0.7-3.9c0,0,3.7-5.3,9.4-1.6l0.6,2L886.4,207.8z"/>
<path class="st23" d="M728.3,199.6l-10.2,6c0,0-0.4-0.8-1-1.9c-1.1-2-2.7-5.1-3.1-6.2c-0.7-1.7-5.1-3.7-5.1-3.7
	c-11.3-10,1.3-19.4,1.3-19.4c6.3-14.1,14.7,4.1,14.7,4.1s1.4,9.7,0.7,10.4s-0.6,3.3-0.6,3.3c1.1,1.9,2,3.8,2.7,5.9
	C728.1,199,728.3,199.6,728.3,199.6z"/>
<path class="st14" d="M728.3,199.6l-10.2,6c0,0-0.4-0.8-1-1.9c1.4-1.3,6.5-5.7,8.2-5.6c0.8,0.1,1.6,0.1,2.5,0
	C728.1,199,728.3,199.6,728.3,199.6z"/>
<path class="st24" d="M729.5,202.7l-11.5,6.2l-0.3-2.5l-0.2-1.7c0,0,6.5-6,8.5-5.9c1,0.1,2,0.1,3-0.1l0.2,2.1L729.5,202.7z"/>
<path class="st23" d="M858.6,236.8c0,0-50.7,7.7-41.3,4.3c6.5-2.4,9-6.7,9.4-11.4c0.3-3.9-0.9-8.1-2.3-11.7c-1.3-3.2-3-6.2-4.9-9
	c0,0,38.1-22.9,31-3.1c-1.1,3-1.7,6.1-1.8,9.3c-0.1,3.2,0.3,6.3,1.4,9.3C851.6,229.2,854.6,233.5,858.6,236.8z"/>
<path class="st14" d="M850.5,205.8c-1.1,3-1.7,6.1-1.8,9.3c-3.5,3.2-7.6,3.2-12.7,3.4c-4,0.1-8.3,1.3-11.6-0.5c-1.3-3.2-3-6.2-4.9-9
	C819.4,209,857.5,186.1,850.5,205.8z"/>
<circle class="st23" cx="834.4" cy="198.8" r="21.1"/>
<path class="st14" d="M858.6,236.8c0,0-50.7,7.7-41.3,4.3c6.5-2.4,9-6.7,9.4-11.4c2.4-2.9,7.4-5,10.7-6.2c2.9-1.1,6.2-1.3,9.2-0.5
	c1.2,0.3,2.4,0.8,3.4,1.4C851.6,229.2,854.6,233.5,858.6,236.8z"/>
<path class="st14" d="M886.4,207.8l-9.6,2.6l-0.3-1.4c2-3,5.7-4.4,9.2-3.6L886.4,207.8z"/>
<path class="st14" d="M729.5,202.7l-11.5,6.2l-0.3-2.5c3.7-2.2,7.6-4,11.6-5.6L729.5,202.7z"/>
<path class="st14" d="M883.6,364.3c-19.6,3.9-47.5,9-52,7.8c-3.7-1-15.5-0.4-25.8,0.3c-0.1-5.1-0.2-8.5-0.2-8.5l76.1-10.9
	C882,356.8,882.7,360.6,883.6,364.3z"/>
<path class="st17" d="M903.1,358.9c0,0-64.5,13.6-71.5,11.8c-7-1.8-42.7,1.8-42.7,1.8c-15.7,11.4-9.6-4.8-9.6-4.8s-1.7-8.3,0-15
	c1.1-5,1.8-10,2.1-15.1c0,0-0.8-10.6,1.1-13.1c1.9-2.6,3.5-20.3,3.5-20.3s1.3-12.1,1-14.7c-0.3-2.7,0.2-10.1,0.2-10.1l1.8-12.5
	c-13.3-1.3-54.6-24.5-54.6-24.5c-2.3-8.2-18-27.1-18-27.1c-0.3-1.6-0.8-3.2-1.4-4.7c-1.2-2.8,14.5-9.1,14.5-9.1s12.4,14,15,17.8
	s11.4,10.7,11.4,10.7c1.3-0.2,2.7-0.1,3.9,0.4l0.2,0.1l0,0c2.9,1,5.6,2.4,8.1,4.2c4-0.3,7.9,1.1,10.9,3.6c0,0,7.2-1.3,8.5-0.1
	s7.4-0.3,7.4-0.3s5.7-13.3,9.9-9.7s21.5,2.8,21.5,2.8c2.2-3.1,7.7-5.5,11.2-6.8c2.9-1.1,6.2-1.3,9.2-0.5c1.3,0.3,2.6,0.9,3.7,1.6
	l10.9,9.9c0,0,2.9-4,2.5-4.9s3.5-1.7,3.5-1.7s5.1-1.8,7-2.4s3.8,1.4,4,1.6c-0.1-0.2-1.6-4.5-1.2-7.7s-2.4-6.3-2.4-6.3
	c5.6-15.4,20.1-3.3,20.1-3.3s1.9,8.3,0.6,11.5s1.8,9.8,1.5,11.6s0.9,4.8,1,8.1s-1.4,9.8-2.3,12.7c-1,2.9-9.2,9.6-9.2,9.6
	S886,274,882.5,280s-0.4,25.9-0.4,25.9s4.1,15.4,8.8,20.2C895.5,330.9,903.1,358.9,903.1,358.9z"/>
<path class="st14" d="M804,246.2c0,0-2.2-5.8-4-6.2c-1.8-0.6-3.5-1.3-5.2-2.1l1-2.2c0,0,6.7,1.6,7.8,3.5S804,246.2,804,246.2z"/>
<path class="st14" d="M768,234.7c-0.3,1.8-16,4-16,4l7.7-8.3l0,0l0.2,0.1l0,0C762.8,231.4,765.5,232.9,768,234.7z"/>
<circle class="st25" cx="721.5" cy="212.1" r="1.4"/>
<circle class="st25" cx="723.5" cy="214.9" r="1.4"/>
<circle class="st25" cx="725.3" cy="217.4" r="1.4"/>
<circle class="st25" cx="727.3" cy="220.2" r="1.4"/>
<circle class="st25" cx="894" cy="213.6" r="1.2"/>
<circle class="st25" cx="894.2" cy="216.2" r="1.2"/>
<circle class="st25" cx="894.5" cy="218.8" r="1.2"/>
<path class="st14" d="M806,294.1c-0.2-0.2,41.6,48.6,71.5,18.3C877.4,312.4,828.8,320.9,806,294.1z"/>
<path class="st14" d="M784.1,321.2c0,0,23.9-0.3,26.6,6.5l0.3,7.1c-1.3,0.8-3,0.9-4.4,0.2c-2.5-1.2-17.2-8-22.1-4.3L784.1,321.2z"/>
<path class="st12" d="M784.5,321.1c0,0,22.8-0.3,25.5,6.2l0.3,6.8c-1.3,0.8-2.9,0.8-4.3,0.2c-2.3-1.1-16.4-7.6-21.1-4L784.5,321.1z"
	/>
<path class="st14" d="M795.1,268.9c2.7,5.5,6,10.8,9.9,15.5c4.2,5.3,9.3,9.8,15,13.4C820,297.8,795.6,272.1,795.1,268.9z"/>
<path class="st14" d="M786.2,241.5c0,0,4.6,17,15.1,22.5L786.2,241.5z"/>
<path class="st14" d="M780.2,243.4c-0.1-0.3-3,13.7,14,20.8C794.2,264.2,787,262,780.2,243.4z"/>
<path class="st14" d="M883.9,227.9c-0.3,0,8.5,5.1,10.9,7.5C894.8,235.4,888.9,227.3,883.9,227.9z"/>
<path class="st21" d="M829.5,218.1c0.1,1.8,1.6,3.2,3.4,3.2c0.1,0,0.2,0,0.3,0c6.4,0.1,13.1,0.2,19-2.5c1.1-0.4,2.1-1.1,2.8-2
	c1-1.3,1.1-3.1,1.5-4.7c0.7-3.2,2.4-6,3.5-9.1c1.9-5.1,2.4-10.7,1.4-16.1c-0.2-1.7-0.8-3.2-1.8-4.6c-1.8-2.4-4.9-3.2-7.3-5.1
	s-3.9-4.8-6.6-6.1c-2.4-1.2-5.3-1-8-0.4c-5.2,1.1-10.2,3.2-14.6,6.1c-1.5,1-3.1,2.1-4.9,1.9c-1.5-0.2-2.7-1.5-3.8-2.6
	c-1.1,2.9-1.6,6.1-1.2,9.2c0.1,0.5,0.1,0.9,0,1.4c-0.2,0.6-0.5,1.1-0.9,1.5c-1.5,1.9-2.4,4.9-0.8,6.6c0.7,0.8,1.8,1.2,2.5,2
	c1.2,1.4,0.9,3.6,1,5.5c0,0.7,0.1,1.3,0.5,1.9c0.7,0.6,1.7,0.8,2.6,0.5c0.9-0.3,1.8-0.4,2.8-0.4c1,0.3,1.9,0.9,2.5,1.8
	C826.8,209.5,828.1,213.6,829.5,218.1z"/>
<g class="st19">
	<path d="M855.7,215.1c-0.8,0.9-1.7,1.6-2.8,2c-5.8,2.7-12.5,2.7-19,2.5c-1.8,0.3-3.5-1-3.7-2.8c0-0.1,0-0.2,0-0.3
		c-1.4-4.5-2.7-8.6-5.8-12.2c-0.6-0.8-1.5-1.5-2.5-1.8c-0.9-0.1-1.9,0.1-2.8,0.4c-0.9,0.3-1.9,0.1-2.6-0.5c-0.4-0.5-0.6-1.2-0.5-1.9
		c0-1.9,0.3-4-1-5.5c-0.7-0.8-1.8-1.2-2.5-2c-0.9-1.2-1.2-2.8-0.6-4.2c-1,1.8-1.5,4.1-0.1,5.6c0.7,0.8,1.8,1.2,2.5,2
		c1.2,1.4,0.9,3.6,1,5.5c0,0.7,0.1,1.3,0.5,1.8c0.7,0.6,1.7,0.8,2.6,0.5c0.9-0.3,1.8-0.4,2.8-0.4c1,0.3,1.9,0.9,2.5,1.8
		c3.1,3.7,4.4,7.8,5.8,12.2c0.2,1.1,0.8,2.1,1.8,2.8c0.6,0.3,1.3,0.4,2,0.4c6.4,0.1,13.1,0.2,19-2.5c1.1-0.4,2.1-1.1,2.8-2
		c0.4-0.5,0.7-1.1,0.8-1.7C855.8,214.9,855.7,215,855.7,215.1z"/>
	<path d="M813.5,186c0.3-0.3,0.5-0.7,0.6-1.1c0.1-0.5,0.1-0.9,0-1.4c-0.3-2.6,0-5.2,0.7-7.6l-0.1-0.1c-1.1,2.9-1.6,6.1-1.2,9.2
		C813.5,185.3,813.5,185.6,813.5,186z"/>
</g>
<path class="st14" d="M826.2,231c0,0,26.4,2.5,28.6-1.6"/>
<path class="st14" d="M876.9,218.2c0,0,14.6-0.5,18,4.8"/>
<path class="st3" d="M161.7,172.1v56c0,1.7-3.1,3-7,3H7c-3.9,0-7-1.4-7-3v-56c0-1.7,3.1-3.4,7-3.4h147.8
	C158.6,168.7,161.7,170.4,161.7,172.1z"/>
<g class="st6">
	<path class="st7" d="M161.7,172.1v56c0,1.7-3.1,3-7,3H7c-3.9,0-7-1.4-7-3v-56c0-1.7,3.1-3.4,7-3.4h147.8
		C158.6,168.7,161.7,170.4,161.7,172.1z"/>
</g>
<rect x="71" y="188.7" class="st4" width="77" height="2.7"/>
<path class="st8" d="M32,182.7c-10.1,0-18.2,8.2-18.2,18.3c0,6.1,3.1,11.8,8.2,15.2V215c0-2.1,1.6-3.9,3.7-4.1
	c1.9,3.5,6.3,4.8,9.8,2.9c1.2-0.7,2.2-1.7,2.9-2.9c2.1,0.2,3.6,2,3.7,4.1v1.3c8.4-5.5,10.8-16.8,5.4-25.2
	C44,185.8,38.2,182.7,32,182.7z M39.2,205.9c-0.3,4-3.8,7-7.7,6.7c-3.6-0.3-6.4-3.1-6.7-6.7c-1.8-4-0.1-8.7,3.9-10.5
	c0.1,0,0.2-0.1,0.3-0.1c-0.3-0.4-0.4-0.8-0.4-1.3c0-1.3,1.1-2.4,2.4-2.4c0,0,0,0,0,0h0.2c-1.3,0.1-2.2,1.1-2.2,2.4
	c0,0.4,0.1,0.8,0.3,1.2h0.1c0-0.2,0-0.3,0-0.5c0-0.5,0.2-1,0.4-1.4c0.3-1,1.2-1.7,2.3-1.7h0.2c-0.7,0.1-1.4,0.5-1.8,1.1
	c1.1-0.7,2.6-0.4,3.3,0.7c0.3,0.4,0.4,0.9,0.4,1.3c0,0.1,0,0.2,0,0.3c4.2,1.1,6.7,5.5,5.6,9.7C39.6,205,39.4,205.5,39.2,205.9
	L39.2,205.9z"/>
<rect x="71" y="195.3" class="st8" width="77" height="2.7"/>
<rect x="71" y="201.9" class="st8" width="77" height="2.7"/>
<rect x="71" y="208.5" class="st8" width="77" height="2.7"/>
<linearGradient id="SVGID_3_" gradientUnits="userSpaceOnUse" x1="197.3575" y1="-108.6262" x2="197.3575" y2="296.267" gradientTransform="matrix(1 0 0 -1 -36.6 502.8)">
	<stop  offset="0" style="stop-color:#808080;stop-opacity:0.25"/>
	<stop  offset="0.54" style="stop-color:#808080;stop-opacity:0.12"/>
	<stop  offset="1" style="stop-color:#808080;stop-opacity:0.1"/>
</linearGradient>
<path class="st26" d="M263.4,343.3c-0.6-3-0.9-6.1-1-9.2c0-3.7-5-7-5-7s-3.1-7.2-5.1-8.3s-8.5-10.5-8.5-10.5
	c-0.1-1.9-0.8-3.6-1.9-5.1c-1.9-2.5-3.7-5.2-5.2-7.9l0,0c-0.9-1.1-0.4-1.8-1.7-7.9c-0.1-0.3-0.2-0.6-0.2-0.9c0-0.1-0.1-0.3-0.1-0.4
	c2.8-2.8,3.7-7,2.4-10.7c-0.2-0.7-0.7-1.4-1.2-1.9c-1.5-1.2-3.8-0.7-5.3-1.8l1.6-7.1c0.4-1.7,0.6-3.9-0.9-4.9
	c-0.6-0.3-1.2-0.5-1.8-0.6c-2.6-0.8-4.1-3.6-4.8-6.2c-0.7-2.5-0.8-5.2-0.5-7.8c0.3-2.5,1-4.9,1.3-7.5c0.5-4.7-0.6-9.3-3.2-13.3
	c-1-1.7-2.4-3.1-4.2-4c-1.6-0.7-3.5-0.8-5-1.8c-3.2-2-3.1-6.9-5.6-9.7s-7.1-2.8-10.9-1.8c-3.7,1-7.4,2.6-11.3,2.2
	c-2.5-0.3-4.8-1.4-7.3-1.6c-0.7-0.1-1.4,0-2.1,0.1l0.1-0.1c-1.8,0.3-3.5,1.4-4,3.1c-0.1,0.4-0.1,0.8-0.1,1.3c0,1,0.2,2.1,0.3,3
	c0.1,0.8-0.2,1.5-0.7,2.1c-0.5,0.5-1.2,0.8-1.7,1.4c-0.4,0.4-0.6,1-0.6,1.6c0,1.5,1.9,2.9,3.2,3.5l0,0c-0.4,0.4-0.7,0.7-1,1.1
	c-3.7,4.2-5.7,9.6-5.6,15.1c0,9.2,5.5,17.5,14,21.1c-0.1,0.2-0.1,0.4-0.2,0.6c-0.4,1.1-0.8,2.2-1.3,3.3c-1.8-0.6-3.8-0.4-5.4,0.6
	c-2.5,1.7-7.3,1.6-8.6,1.3s-14.7-2-15.8-1.6c-1.1,0.4-3.2-1.5-4.6,1.1c-1.4,2.5-2,3.9-3.4,4.5c-1.4,0.6-3.9,2.7-3.5,3.1
	c0.3,0.4-3.5,3-3.5,3s-3.3,3.5-5.3,3.9c-1.9,0.4-6,3.1-6,3.1l-4.7,3.7c0,0-3.5,0.5-2.5-1.9s-1.9-5.5-1.9-5.5s-6-12.2-6-14.7
	c0-2.5-4.9-13.2-4.9-13.2l-0.6-0.1c-0.1-0.3-0.2-0.5-0.3-0.8c-0.9-2.5-2.1-5.7-3-7.5c-1.7-3.5-2.8-3.9-2.8-3.9S74.5,224.2,61,228.9
	s24.7,18.9,28.1,20.4c1.2,0.5,2.1,2.2,2.7,4.1c-3,1.5-5.6,3.8-7.3,6.7c0,0,8.3,18.3,8.5,22.8c0.2,4.6,5.7,17.3,5.7,17.3
	s2,9.4,13.1,8.9c0,0,15.2,2.8,18.5,0c3.3-2.8,6.3-5,7.9-5.3c1.2-0.4,2.2-1.1,3-2.1c0,0-5,31.7-7.5,34.5s-24.3,38.4-16.5,44.8
	c6.2,4.8,12.8,9.2,19.6,13c0.7,0.3,2.7-3,5.5-5.3c0,0.6,0,1.2,0,1.8c0.1,12.7,1.7,32,4.1,36.3c3.4,6.3,2,18.6,2,18.6
	c1.8,0.9,3.8,1.3,5.8,1.4c0.1,0.4,0.2,0.8,0.3,1.3c1.9,7.1,5,18.2,6.5,21.1c2.4,4.5,4.1,18.5,4.1,18.5s1.4,13.9,0.9,15.8
	c-0.2,0.7,0.7,6.5,2.1,13.8l0,0c-0.9,9.9-2.5,29-2.8,36l0,0c0,0.1,0,0.3,0,0.4v0.3c0,0.2,0,0.3,0,0.4l0,0c0,0.4,0,0.9,0,1.3
	c0.1,0.7,0.1,1.4-0.1,2c-0.6,1.9-1.4,3.8-2.3,5.5c-0.1,0.2-0.6,1.4-1,2.7c-0.9,0.4-1.9,1.3-2.5,3.5c-1.1,4.1-2.7,15.6-2.7,15.6
	s-0.6,7-1.9,8.6c-1.3,1.6-2.6,11.5,6.5,12.8c9.1,1.3,13.1-4.8,13.1-4.8l-0.3-27.7l0,0c0.2-0.2,0.3-0.5,0.5-0.8v-0.1
	c0.1-0.1,0.1-0.3,0.2-0.4s0-0.1,0.1-0.2c0.1-0.1,0.1-0.2,0.1-0.3c0,0,0-0.1,0-0.1c0.9-2.7,1.2-5.5,0.8-8.3c0,0,0-0.1,0-0.1v-0.2
	c0-0.1,0-0.1,0-0.2c0-0.1,0-0.1,0-0.2c0-0.1,0-0.2,0-0.2v-0.2c0-0.2,0-0.4,0.1-0.6c0,0,0-0.1,0-0.1c0-0.1,0-0.2,0-0.3
	c0,0,0-0.1,0-0.2c0-0.1,0-0.2,0.1-0.3V561c0.1-0.4,0.2-0.8,0.3-1.3v-0.1l0.1-0.4l0,0c0.1-0.5,0.3-0.9,0.4-1.3v-0.1l0.1-0.4v0
	c0.1-0.4,0.3-0.8,0.5-1.2v-0.1l0.1-0.3v-0.1l0.3-0.8l0,0l2.5,7.8c0,0,1.4,5.8,0.6,7.2s0.9,7.1,1.9,7.2l-1,7.2c-0.6,4-0.9,8-1,12
	c-0.1,0.5-0.1,0.8-0.2,1.1c-0.7,3.7,1,9.4,1,9.4c8.5,10,18.6,0.8,18.6,0.8s1.2-5.3,0-6.3s-0.6-4.9-0.6-4.9s0.5-9.4,0.6-16.3
	c0.1-6.9-5.6-12.9-5.6-12.9l-0.3,0.3c-1-2.7-2.2-5.8-2-7.3c0.4-2.4-1.2-28.1-1.2-28.1c0.6-6.9,0.7-13.8,0.4-20.7l0,0
	c0.1-1.2,0.3-2.3,0.4-3.4c0.6-5.5,1.2-10.3,1.4-12.7l0,0v-0.3c0-0.7,0.1-1.1,0.1-1.4c0-0.8,0-1.8,0.1-2.9c0.2-3,0.7-6.3,0.7-6.3
	l2.3-13.7c0,0,1.7-6.7,4.2-10.4l0.3-0.5l0,0c0.1-0.2,0.2-0.3,0.3-0.5v-0.1l0.3-0.6v-0.1c0.4-0.7,0.7-1.5,1.1-2.3l0.1-0.2l0.3-0.7
	l0.1-0.3l0.3-0.7c0-0.1,0.1-0.2,0.1-0.3c0.1-0.3,0.2-0.5,0.3-0.8l0.2-0.4c0.1-0.2,0.2-0.4,0.3-0.6l0.2-0.5l0.1-0.4l0.2-0.6
	c0-0.1,0.1-0.2,0.1-0.3c0.6-1.5,1.2-3,1.7-4.4l0,0c0.2-0.4,0.3-0.8,0.5-1.2c5.5,0.3,9.2,0.7,9.2,0.7s1.7-12.4,1.2-20.5
	c-0.4-5.6,0.7-12.6,1.4-16.4c0.1-0.4,0.1-0.8,0.2-1.2l0.1,0.1c2.7,2.1,4.6-4.9,4.6-4.9s-0.7-6.5-1.7-14.4c0-0.3-0.1-0.5-0.1-0.8
	c1.5,0.3,3.1,0.6,4.7,0.7c0,0,0.9-0.1,2-0.2c3.2,1.9,6.6,3.4,10.2,4.6l5.7-10.6c1.1-2.2,2.3-4.3,3.8-6.2c1.7-2.1,7.8-8.9,7.7-10.2
	c-0.1-1.3,2-8.6,4.2-11.9C262.2,350.5,263.5,343.8,263.4,343.3z M239.6,351.3c-2.3,1-4.4,6.2-4.5,7.8c-0.1,1.6-2.5,8.6-4.9,9.4
	c-2.3,0.8-6.6,4.8-7.3,5.4c-0.7,0.1-1.5,0.2-2.4,0.3c-0.9-6.7-1.9-12.2-2.5-13.3c-1.7-3.2,1.9-13.3,1.9-13.3s0.4-10.3,2.6-12.7
	s1.7-8.6,1.7-8.6s0.5-2.5,0.8-3.7c0.2-1.2,3.2,0,3.2,0l0,0c0,0,5.8,3.2,6.6,7.9c0.9,4.8,7.2,13,7.2,13s-1,2.8,0,4.3
	S241.9,350.3,239.6,351.3L239.6,351.3z"/>
<path class="st27" d="M84.6,260.9c3.6-5.9,10.4-9.2,17.3-8.1v12.4h-7.5l-5.9-1.5L84.6,260.9z"/>
<path class="st14" d="M84.6,260.9c3.6-5.9,10.4-9.2,17.3-8.1v12.4h-7.5l-5.9-1.5L84.6,260.9z"/>
<path class="st28" d="M102.4,256l-9.2,6.5c0,0-0.1-1.3-0.3-3.1c-0.5-3.3-1.5-8.3-3.7-9.3c-3.4-1.5-41-15.6-27.7-20.4
	s33.8,10.8,33.8,10.8s1.1,0.4,2.7,3.9c0.9,1.8,2,5,2.9,7.5C101.8,254.2,102.4,256,102.4,256z"/>
<polygon class="st27" points="175.9,265.9 176.9,265.4 179.9,268.8 177.5,273.9 173.4,272.3 174.3,268.2 "/>
<path class="st2" d="M162,565.9c0,0-2.6-0.3-3.7,3.8s-2.6,15.5-2.6,15.5s-0.6,7-1.9,8.5s-2.5,11.5,6.4,12.8s12.9-4.8,12.9-4.8
	l-0.3-27.7L162,565.9z"/>
<path class="st2" d="M193.3,567.1c0,0,5.6,6,5.6,12.9c-0.1,6.9-0.6,16.3-0.6,16.3s-0.5,3.8,0.6,4.9s0,6.3,0,6.3s-9.9,9.2-18.3-0.8
	c0,0-1.6-5.7-1-9.4s2.5-20.3,2.5-20.3L193.3,567.1z"/>
<path class="st28" d="M207.3,440.8c0,0-5.7,16-8.1,19.6s-4.1,10.4-4.1,10.4l-2.2,13.6c-0.4,3-0.7,6.1-0.7,9.2
	c0.1,3.1-5.5,47.7-5.5,47.7l-8.9,11.3c0,0-3.9,7.9-3.3,11.2s-0.4,8.5-1.7,10.1c0,0-0.2,10.3-0.5,12.7c-0.3,2.3,1.2,8.9,0,10
	c-1.2,1.1-16.7,0.6-17.1-1.3c-0.4-1.9,1.9-11.1,1.9-11.1l1.4-8.9c0,0,2.7-4.9,2.1-6.4s1.2-5.3,1.3-5.6c0.1-0.3,3-5.5,2.4-7.5
	s3.3-44.6,3.3-44.6l10.9-76.4L207.3,440.8z"/>
<path class="st14" d="M207.3,440.8c0,0-0.9,2.4-2.1,5.6c-1.9,5-4.6,11.8-6.1,14.1c-2.4,3.7-4.1,10.3-4.1,10.3l-2.2,13.6
	c-0.4,3-0.7,6.1-0.7,9.2c0,1.2-0.8,8.9-1.9,17.8c-1.6,13.6-3.6,29.9-3.6,29.9l-8.9,11.3c0,0-0.4,0.9-1,2.2c-1.1,2.6-2.7,6.8-2.3,9
	c0.6,3.3-0.4,8.6-1.7,10.1c0,0-0.2,10.4-0.5,12.7c-0.3,2.3,1.2,8.9,0,10c-1.2,1.1-16.7,0.6-17.1-1.3s1.9-11.1,1.9-11.1l1.4-8.9
	c0,0,2.7-4.9,2.1-6.4s1.2-5.3,1.3-5.6c0.1-0.3,3-5.5,2.4-7.5c-0.4-1.5,1.7-26.5,2.7-38.4c0.3-3.7,0.6-6.2,0.6-6.2l9.4-65.7l0.8-5.3
	l0.8-5.4L207.3,440.8z"/>
<path class="st28" d="M197.8,599.7c0.1,1.2-14.9,2.8-17,1.6c-2.1-1.3,0-17,0-17l1-7.2c-1.1-0.1-2.6-5.8-1.9-7.2
	c0.7-1.4-0.6-7.2-0.6-7.2l-2.5-7.8l-1.5-4.8c-2.5-5.5-6-21-8.3-32.6c-1.4-7.3-2.3-13-2.1-13.8c0.5-1.9-0.9-15.7-0.9-15.7
	s-1.7-14-4-18.5c-1.5-2.9-4.6-14-6.4-21.1c-0.9-3.7-1.6-6.3-1.6-6.3s16-1.3,25.6-1.8c4.5-0.2,7.6-0.2,7.2,0.1s-0.5,2.3-0.4,5.1
	c0,7.3,1,20,2.1,23.4c1.5,4.8,3,19,2.3,20.4s-0.4,10.6-0.4,10.6c1.1,3.7,1.7,7.6,1.9,11.5c0.3,6.9,0.2,13.8-0.4,20.6
	c0,0,1.6,25.7,1.2,28.1s3.4,10,3.4,11.5s1,11.5,1,11.5S197.7,598.5,197.8,599.7z"/>
<path class="st28" d="M206.1,291.2l-1.8,2l-1.2,1.3l-6.9,7.3l-17.9,2l-9.5-2.5l-2.4-0.6c0,0,0-4.8,0.4-10.5c0.6-7.3,2-16.2,5.5-18.7
	c1.7-1.4,3.1-3.1,4-5.1c0.7-1.4,1.3-2.8,1.7-4.3c0.1-0.2,0.1-0.4,0.2-0.5c0.8-2.6,1.3-5.2,1.7-7.8c0,0,2.3-1.3,5.4-2.7
	c8.3-3.9,22.5-9.2,17.6,2.7c-0.7,1.7-1.4,3.5-1.9,5.4c-0.1,0.3-0.1,0.5-0.2,0.8c-1.7,6.6-0.6,10.7,0.7,12.9l0,0
	c0.2,0.4,0.5,0.7,0.7,1.1c0.3,0.5,0.7,0.9,1.2,1.2l2.1,13l0.2,1.1L206.1,291.2z"/>
<path class="st14" d="M203,254.4C202.1,256.7,203.5,252.6,203,254.4c-3.8,2.7-12.6,10.3-17.6,10.3c-3.4,0-4.4-0.6-7.3-1.9
	c0.9-2.7,1.5-5.5,1.9-8.4C180,254.4,209.9,237.9,203,254.4z"/>
<path class="st28" d="M210.6,240.6c0,11.8-8.9,21.7-20.6,22.9c-0.8,0.1-1.6,0.1-2.4,0.1c-12.7,0-23-10.3-23-23s10.3-23,23-23
	S210.6,227.9,210.6,240.6L210.6,240.6L210.6,240.6z"/>
<path class="st14" d="M213.9,342.6l-3.3,8.6c0,0-2.7,0.1-6.8,0.3c-14,0.5-45,1-46.4-2.6c-0.3-0.9-0.5-1.9-0.5-2.8
	c-0.2-5.5,2.4-14,2.4-14s1.5-16.9,1.5-17.6c0-0.7-1.3-12.6-1.3-12.6l2.5-9.5l7.1-5c0,0,3.2,4.9,5.1,5.3c1.9,0.4,4.4,2.8,4.4,2.8
	s6.2,3.8,8.2,1.7c2-2.1,17.6-11.4,17.6-11.4l8.2,9.1L213.9,342.6z"/>
<path class="st3" d="M213.9,343.9l-3.3,8.6c0,0-2.7,0.1-6.8,0.2h-0.4l-6.1,0.2c-11.2,0.3-26.5,0.3-34.6-0.8c-3-0.4-5-1-5.3-1.9
	c-0.2-0.5-0.3-1-0.4-1.6c-0.1-0.4-0.1-0.8-0.1-1.3c-0.2-5.5,2.4-14,2.4-14s1.5-16.9,1.5-17.6s-1.3-12.6-1.3-12.6l2.5-9.5l4.9-3.4
	l2.2-1.5c0.7,1.1,1.6,2.2,2.4,3.2c0.7,0.9,1.6,1.6,2.6,2.1c1.9,0.4,4.4,2.8,4.4,2.8s6.2,3.8,8.2,1.7c1.5-1.6,11-7.4,15.4-10.1
	l2.2-1.3l1.1,1.2l7.1,7.9L213.9,343.9z"/>
<path class="st14" d="M102.4,256l-9.2,6.5c0,0-0.1-1.3-0.3-3.1c4.5-1.9,7.3-6.2,8.1-7.5C101.8,254.2,102.4,256,102.4,256z"/>
<path class="st17" d="M134.7,277.9l-2-0.5c0,0-3.3,3.5-5.2,3.9c-1.9,0.4-5.9,3.1-5.9,3.1L117,288c0,0-3.5,0.5-2.4-1.9
	s-1.9-5.5-1.9-5.5s-5.9-12.2-5.9-14.7c0-2.5-4.9-13.2-4.9-13.2s-6.1,11.9-17.3,8.1c0,0,8.1,18.3,8.3,22.8c0.2,4.5,5.6,17.2,5.6,17.2
	s2,9.4,12.9,8.9c0,0,15,2.8,18.3,0c3.3-2.8,6.2-5,7.8-5.3c1.2-0.4,2.2-1.1,2.9-2.1v-12.6L134.7,277.9z"/>
<path class="st29" d="M115.9,289.8c0,0,2.6,9.8,1,10.9L115.9,289.8z"/>
<path class="st14" d="M203.8,352.7c-14,0.5-45,1-46.4-2.6c-0.3-0.9-0.5-1.9-0.5-2.8l45.9,2.4L203.8,352.7z"/>
<path class="st14" d="M207.3,440.8c0,0-0.9,2.4-2,5.6c-5.8-0.4-13.6-0.7-20.9-0.8c-2.6,0-5.1,0-7.5,0.1c-4.1,0-8.3,0.5-12.3,1.4
	c-3.6,1.1-7.3,1.6-11,1.4c-1-3.7-1.6-6.3-1.6-6.3s16-1.3,25.6-1.8l0.8-5.4L207.3,440.8z"/>
<path class="st12" d="M219.6,402.2l-1.8,3.8c0,0-0.3,1.1-0.6,2.9c-0.7,3.9-1.7,10.8-1.3,16.4c0.5,8.1-1.2,20.5-1.2,20.5
	s-38.9-3.3-50.3,0s-17,0-17,0s1.4-12.3-2-18.6c-2.3-4.3-3.9-23.6-4-36.3c0-5.8,0.3-10.3,1-11.2c2.3-2.9,12.3-31.4,12.3-31.4l2.3,0.1
	l6,0.3l34.4,1.8l5.4,0.3l0.6,1.8L219.6,402.2z"/>
<path class="st27" d="M236.7,389.5l0.3,3.4c0,0-17-5.5-16.2-12.3s0-6,0-6l13.7,1.2L236.7,389.5z"/>
<path class="st14" d="M236.7,389.5l0.3,3.4c0,0-17-5.5-16.2-12.3s0-6,0-6l13.7,1.2L236.7,389.5z"/>
<path class="st14" d="M127.3,292.5c1.7,1.5,3.8,2.5,6,3.1c-0.7-0.1-1.3-0.4-1.8-0.8c-1.2-0.9-2.4-1.8-3.6-2.7
	c-0.9-0.7-2.1-2-3.3-2.3C125.4,290.8,126.3,291.7,127.3,292.5z"/>
<path class="st14" d="M127.5,297c0.6,0.6,1,1.3,1.3,2.1c0.3,0.9,0.4,1.8,0.4,2.7c0.1,1.3,0,2.6-0.5,3.8L126,299
	c-0.5-1.1-1-2.2-1.5-3.3c-0.3-0.5-1.8-2.4-1.6-2.8C123.3,291.8,127,296.3,127.5,297z"/>
<path class="st14" d="M203.7,333.4c1.9-0.2,3.6-1,5-2.3c-2.8,0.4-5.5,1.5-8.2,2c-2.6,0.6-5.3,0.4-7.7-0.7
	C195.9,334,200.3,334,203.7,333.4z"/>
<path class="st14" d="M195.7,314.1c-0.5,0.1-1-0.1-1.4-0.4c-2.1-1.2-4.2-2.5-6.2-3.8c-2.2-1.2-4.2-2.6-6.1-4.2
	C186.2,309.5,190.1,312.7,195.7,314.1z"/>
<path class="st14" d="M201.6,336.5c1.1,0,2.2,0,3.3-0.3c1.1-0.2,2.1-0.9,2.7-1.8c-0.4-0.1-0.8,0-1.1,0.2c-3.3,1.4-7,1.8-10.6,1.3
	C197.6,336.6,199.8,336.5,201.6,336.5z"/>
<path class="st14" d="M181.6,385.5c-2.2,0.7-4.5,1.1-6.8,1.3c-1.8,0.1-3.6,0-5.3-0.1l-8.6-0.5l-4.3-0.3c-0.5,0-2.6,0-1.6-1
	c0.5-0.5,3.4-0.2,4.1-0.2c1.4,0,2.9-0.1,4.3-0.1c2.9,0,5.7,0,8.6,0.2C175.2,384.9,178.4,385.2,181.6,385.5z"/>
<path class="st14" d="M171.6,389.8c-1.5-0.1-3.4,0.8-4.9,1c-1.7,0.2-3.4,0.3-5.1,0.2c-3.4-0.1-6.7-0.8-9.8-2
	C158.4,389.3,165,389.5,171.6,389.8z"/>
<path class="st14" d="M153.1,394.3c0.6,0.1,1.3,0.3,1.9,0.5c3.6,1,7.5,0.1,11.2-0.8c-0.9,1.4-2.6,2-4.3,2.4
	c-2.7,0.7-5.5,0.8-8.3,0.3c-0.9-0.2-3-0.5-3.5-1.4C149.5,394,152.3,394.2,153.1,394.3z"/>
<path class="st14" d="M173.5,401.1c1.1,0.2,2.2,0.5,3.2,0.8c4.1,1,8.4-0.4,12.5-1.3c5-1.1,10-1.6,15.1-1.4c-0.9,0-2.4,0.8-3.2,1.1
	c-1.2,0.3-2.4,0.7-3.5,1c-2.3,0.6-4.7,1-7.1,1.4c-4.8,0.7-9.6,0.9-14.5,0.6c-2.2-0.1-6,0.1-7.9-1
	C169.7,401.4,171.6,400.9,173.5,401.1z"/>
<path class="st14" d="M175.1,270.9c0,0,0.2,9.7-1.4,14.2c-0.5,1.4-1.3,3.9-2.1,6.8c-0.9,3.2-1.9,6.7-2.7,9.5s-1.3,4.7-1.3,4.7
	s-3.6,29.1-4.5,42.9c0,0.2,0,0.5,0,0.7c0,0.8-0.1,1.6-0.3,2.4c-2.1,13.8-13.9,34.9-17.9,36.6c-1.2,0.6-2.4,1.3-3.4,2.3
	c0-5.8,0.3-10.3,1-11.2c2.3-2.9,12.3-31.4,12.3-31.4l2.3,0.1c-0.1-0.4-0.1-0.8-0.1-1.3c-0.2-5.5,2.4-14,2.4-14s1.5-16.9,1.5-17.6
	s-1.3-12.6-1.3-12.6l2.5-9.5l4.9-3.4c0.6-7.3,2.1-16.2,5.5-18.7c1.7-1.4,3.1-3.1,4-5.1c0.7,0.1-0.6-0.5-0.6-0.5L175.1,270.9z"/>
<path class="st17" d="M176.9,265.4c-1.8-0.6-3.7-0.4-5.4,0.6c-2.4,1.7-7.2,1.6-8.5,1.3c-1.3-0.3-14.5-2-15.5-1.6
	c-1.1,0.4-3.2-1.5-4.5,1c-1.4,2.5-2,3.9-3.4,4.5c-1.4,0.6-3.8,2.6-3.5,3.1c0.3,0.4-3.5,3-3.5,3l7.7,25c0,0-5,31.7-7.4,34.4
	c-2.4,2.7-24,38.3-16.3,44.7c6.1,4.8,12.6,9.2,19.3,13c0.9,0.4,3.9-5.3,8.1-7.1c4.2-1.8,17.3-25.6,18.2-39.1
	c0.9-13.5,4.5-43.6,4.5-43.6s4.5-16.5,6.1-20.9c1.6-4.4,1.3-14.2,1.3-14.2L176.9,265.4z"/>
<path class="st14" d="M219.6,402.2l-1.8,3.8c0,0-0.3,1.1-0.6,2.9c-0.3,0-0.7-0.2-0.9-0.4c-2.6-2.1-18.2-18.1-18.9-32.2
	c-0.6-10.4-0.3-19.4-0.1-23.4c0.1-1.3,0.1-2,0.1-2.2l0,0c0,0,12-14.6,10.7-19.8c-1.3-5.2-4.5-32.9-4.5-32.9l-0.5-3.6l-0.8-6.1
	l-1.9-14.9l2,0.5c0.3,0.5,0.7,0.9,1.2,1.2l2.1,13l7.1,7.9l1.2,47.8l-3.3,8.6c0,0-2.7,0.1-6.8,0.2h-0.4L219.6,402.2z"/>
<path class="st17" d="M226.3,323.2c0,0-3-1.2-3.2,0c-0.2,1.2-0.7,3.7-0.7,3.7s0.5,6.1-1.7,8.6s-2.6,12.7-2.6,12.7
	s-3.5,10.1-1.9,13.3c0.6,1.1,1.6,6.9,2.5,13.8c0.6,4.3,1.2,9.1,1.7,13.4c1,7.9,1.7,14.4,1.7,14.4s-1.9,7-4.5,4.9
	c-2.6-2.1-18.2-18.1-18.9-32.2c-0.5-10-0.3-18.6-0.1-22.8c0.1-1.8,0.1-2.8,0.1-2.8s12-14.6,10.7-19.7c-1.3-5.2-4.5-32.8-4.5-32.8
	l-0.6-4.3l-0.6-4.6l-0.1-1l-1.9-14.7l0,0c0.3,0.1,12.2,2.8,13.8,4.3s11.2,3.8,11.2,3.8c3,0.8,5.3,3.2,6,6.2c0.1,0.3,0.2,0.6,0.2,0.9
	c1.3,6.1,0.9,6.9,1.7,7.9C235.4,297,226.3,323.2,226.3,323.2z"/>
<path class="st14" d="M220.5,388.6c-4.3-0.8-10.7-2.8-10.6-7.3c0.1-4.1,5.1-5.6,8.9-6.1C219.4,379.5,219.9,384.3,220.5,388.6z"/>
<path class="st28" d="M233.9,386.4c-0.2,0.4-0.9,0.7-1.8,1c-2.3,0.6-4.6,0.9-7,1.1c0,0-14.7-1.2-14.5-7.8c0.1-4.8,6.8-6,10.5-6.3
	c1.5-0.1,2.5-0.1,2.5-0.1S234.5,385.1,233.9,386.4z"/>
<path class="st14" d="M233.9,386.4c-0.2,0.4-0.9,0.7-1.8,1c-3.8-5.1-9.2-11.7-11.8-12.3c0,0,0.3-0.3,0.8-0.7
	c1.5-0.1,2.5-0.1,2.5-0.1S234.5,385.1,233.9,386.4z"/>
<path class="st17" d="M230.2,295.3l4.3,0.6c1.6,2.7,3.3,5.4,5.2,7.9c1.2,1.4,1.8,3.2,1.9,5.1c0,0,6.3,9.4,8.3,10.5s5.1,8.2,5.1,8.2
	s5,3.3,5,7c0.1,3.1,0.4,6.1,1,9.2c0.1,0.5-0.7,7.1-2.9,10.4s-4.2,10.6-4.1,11.8c0.1,1.3-5.9,8-7.6,10.1c-1.4,2-2.6,4.1-3.7,6.2
	l-5.6,10.6c0,0-11.8-17.4-16.2-18.4c0,0,4.9-4.6,7.3-5.5c2.4-0.8,4.8-7.8,4.9-9.4c0.1-1.6,2.2-6.9,4.4-7.8s3.4-1.9,2.4-3.4
	c-1-1.5,0-4.3,0-4.3s-6.2-8.2-7.1-13s-6.5-7.9-6.5-7.9l-3.3-8L230.2,295.3z"/>
<path class="st14" d="M245.9,334.7c2.4-2,5.4-3.2,8.5-3.2c-2,0.4-4.1,0.8-5.6,2.2c-0.6,0.6-1.1,1.3-1.5,2c-0.5,0.7-4.6,5.9-5.2,5.1
	C241.1,339.5,245.1,335.4,245.9,334.7z"/>
<path class="st14" d="M236.3,329.7c1.3-0.1,2.5-0.9,3-2.1c0.5-1.2,0.8-2.5,0.9-3.8c0.3-2.2,0.7-4.3,1.3-6.4c0.1-0.4,0.2-0.9,0.2-1.3
	c-0.1-0.4-0.2-0.9-0.4-1.3c-0.2-0.7-0.5-1.3-0.9-1.9c-0.8,0.9-1,2.9-1.3,4c-0.4,1.4-0.8,2.9-1.1,4.3
	C237.9,322,236.4,329.7,236.3,329.7z"/>
<path class="st14" d="M232.6,287.1c-0.4,0.6-0.9,1.1-1.5,1.5c-1.7,1.4-4,2.5-4.2,4.7c0.1,0.7,0,1.4-0.3,2.1c-0.5,0.9-1.9,0.9-3,0.7
	c-0.9-0.1-1.8-0.4-2.5-0.9c-1.1-1-1.2-2.7-2.1-3.9c-1.1-1.3-2.6-2-4.3-1.9c-1.6,0-3.2,0.3-4.8,0.4c-1,0.1-2.1,0-3.1-0.2
	c-0.3-0.1-0.7-0.1-1-0.2c-0.7-0.2-1.4-0.4-2.1-0.7c-0.3-0.1-0.7-0.3-1-0.5c-1.1-0.6-2.1-1.2-3-2.1c-1.6-1.5-2.9-3.5-2.8-5.6
	c0.2-1.3,0.5-2.6,0.9-3.8c0.6-3.7-1.8-7.3-4.5-9.9c-1.1-1-2.2-2.1-3.3-3.2c-1.7-1.5-3-3.4-3.9-5.5c-0.7-2.2-0.9-4.6-0.7-6.9
	c0.2-2.4,0.3-4.7,0.2-7.1c-0.8-8.4-8-14.8-15.1-18.3l-0.3-0.2c8.5-9.5,23-10.3,32.5-1.9c9.5,8.5,10.3,23,1.9,32.5
	c-1,1.1-2.1,2.2-3.3,3.1c-0.1,0.3-0.1,0.5-0.2,0.8c-1.7,6.6-0.6,10.7,0.7,12.9l0,0c0.3,0.1,12.2,2.8,13.8,4.3s11.2,3.8,11.2,3.8
	C229.6,281.8,231.9,284.1,232.6,287.1z"/>
<path class="st2" d="M168.6,219.3c0.5-0.5,1.2-0.8,1.7-1.4c1.5-1.6,0-4.3,0.6-6.4c0.6-2.4,3.5-3.4,5.9-3.2s4.7,1.4,7.1,1.6
	c3.8,0.4,7.4-1.2,11.1-2.2s8.1-1,10.7,1.8c2.5,2.8,2.4,7.6,5.5,9.7c1.5,0.9,3.3,1,4.9,1.8c1.7,0.9,3.2,2.3,4.1,4
	c2.5,3.9,3.6,8.6,3.1,13.2c-0.3,2.5-1,4.9-1.3,7.4c-0.3,2.6-0.1,5.2,0.5,7.8c0.7,2.6,2.1,5.4,4.7,6.2c0.6,0.1,1.2,0.3,1.8,0.6
	c1.5,0.9,1.3,3.1,0.9,4.8l-1.6,7c1.5,1.1,3.8,0.6,5.2,1.8c0.6,0.5,1,1.2,1.2,1.9c1.4,4.1,0.2,8.6-3.1,11.3c-1.7,1.4-4,2.5-4.2,4.7
	c0.1,0.7,0,1.4-0.3,2.1c-0.5,0.9-1.9,0.9-3,0.7c-0.9-0.1-1.8-0.4-2.5-0.9c-1.1-1-1.2-2.7-2.1-3.9c-1.1-1.3-2.6-2-4.3-1.9
	c-1.6,0-3.2,0.3-4.9,0.4c-3.8,0.2-7.4-1.2-10.2-3.7c-1.7-1.4-2.7-3.4-2.8-5.6c0.2-1.3,0.5-2.6,0.9-3.9c0.6-3.7-1.8-7.3-4.5-9.9
	c-2.7-2.7-5.8-5.1-7.1-8.7c-1.6-4.4,0-9.3-0.5-14c-0.8-8.4-8-14.8-15.1-18.3C169.5,223.6,166.8,221.5,168.6,219.3z"/>
<path class="st14" d="M225.1,291.9c-1.1-1-1.2-2.7-2.1-3.9c-1.1-1.3-2.6-2-4.3-1.9c-1.6,0-3.2,0.3-4.8,0.4
	c-3.7,0.2-7.4-1.1-10.2-3.6c-1.6-1.5-2.9-3.5-2.8-5.6c0.2-1.3,0.5-2.6,0.9-3.8c0.6-3.7-1.8-7.3-4.5-9.9s-5.8-5.1-7.1-8.7
	c-1.6-4.4,0-9.3-0.5-14c-0.8-8.4-8-14.8-15.1-18.3c-1.7-0.8-4.4-2.9-2.5-5c0.5-0.5,1.2-0.8,1.7-1.3c1.5-1.6,0-4.3,0.6-6.4
	c0.1-0.4,0.3-0.8,0.5-1.2c-1.8,0.2-3.3,1.4-3.9,3.1c-0.5,2.1,0.9,4.8-0.6,6.4c-0.5,0.5-1.2,0.8-1.7,1.3c-1.9,2.1,0.9,4.2,2.5,5
	c7.2,3.5,14.3,9.9,15.1,18.3c0.4,4.7-1.1,9.6,0.5,14c1.3,3.5,4.5,6,7.1,8.7c2.7,2.7,5.2,6.2,4.5,9.9c-0.4,1.3-0.7,2.5-0.9,3.8
	c-0.1,2.1,1.2,4.1,2.8,5.6c2.8,2.5,6.5,3.9,10.2,3.7c1.6-0.1,3.2-0.4,4.9-0.4c1.6-0.1,3.2,0.7,4.3,1.9c0.9,1.2,1,3,2.1,3.9
	c0.7,0.5,1.6,0.8,2.5,0.9c1.1,0.2,2.4,0.3,3-0.7c0.2-0.4,0.3-0.8,0.2-1.2C226.6,292.7,225.8,292.4,225.1,291.9z"/>
</svg>
