<?xml version="1.0" encoding="utf-8"?>
<!-- Generator: Adobe Illustrator 23.0.5, SVG Export Plug-In . SVG Version: 6.00 Build 0)  -->
<svg version="1.1" id="Capa_1" xmlns="http://www.w3.org/2000/svg" xmlns:xlink="http://www.w3.org/1999/xlink" x="0px" y="0px"
	 viewBox="0 0 957 578" style="enable-background:new 0 0 957 578;" xml:space="preserve">
<style type="text/css">
	.st0{fill:#F5F5F5;}
	.st1{fill:#FF5C97;}
	.st2{fill:none;stroke:#FFFFFF;stroke-width:2;stroke-miterlimit:10;}
	.st3{fill:#6C63FF;}
	.st4{fill:#3F3D56;}
	.st5{fill:url(#SVGID_1_);}
	.st6{fill:#1E3659;}
	.st7{fill:#FFFFFF;}
	.st8{fill:url(#SVGID_2_);}
	.st9{opacity:0.1;enable-background:new    ;}
	.st10{fill:url(#SVGID_3_);}
	.st11{fill:none;stroke:#535461;stroke-width:2;stroke-miterlimit:10;}
	.st12{fill:url(#SVGID_4_);}
	.st13{fill:#F7C4A7;}
	.st14{opacity:5.000000e-02;enable-background:new    ;}
	.st15{fill:#D0CDE1;}
	.st16{opacity:0.1;fill:#D0CDE1;enable-background:new    ;}
	.st17{fill:#2F2E41;}
	.st18{fill:#575988;}
	.st19{fill:#DDDBE2;}
</style>
<title>web_devices</title>
<ellipse class="st0" cx="478" cy="453.5" rx="465" ry="124.5"/>
<path class="st1" d="M864.2,152.9c0,0-35.8,35.8-15.6,89s-34.7,141.6-34.7,141.6s0.6-0.1,1.7-0.3c73.6-13,110.2-97.2,69.2-159.7
	C869.6,200.2,857.1,173,864.2,152.9z"/>
<path class="st2" d="M864.2,152.9c0,0-20.2,43.9,0,79.8s3.5,136.4-50.3,150.8"/>
<path class="st3" d="M928,297.8c0,0-40.9-6.5-44.6,30.1s-78.6,41.7-78.6,41.7l1.4,0.9c61.8,40.6,121,25.9,112-28
	C914.9,322.5,915.2,302.4,928,297.8z"/>
<path class="st4" d="M928,297.8c0,0-40.9-6.5-44.6,30.1s-78.6,41.7-78.6,41.7l1.4,0.9c61.8,40.6,121,25.9,112-28
	C914.9,322.5,915.2,302.4,928,297.8z"/>
<path class="st2" d="M928,297.8c0,0-31.7,7-29.1,35.8c2.6,28.8-47.1,63.4-94.1,36"/>
<linearGradient id="SVGID_1_" gradientUnits="userSpaceOnUse" x1="582" y1="958.1" x2="582" y2="592.3" gradientTransform="matrix(1 0 0 1 -82 -530)">
	<stop  offset="0" style="stop-color:#808080;stop-opacity:0.25"/>
	<stop  offset="0.54" style="stop-color:#808080;stop-opacity:0.12"/>
	<stop  offset="1" style="stop-color:#808080;stop-opacity:0.1"/>
</linearGradient>
<path class="st5" d="M833.4,385.9h-64.2c1.5-3,2.2-6.2,2.2-9.6V83.8c0-11.9-9.6-21.5-21.5-21.5l0,0H252.5
	c-11.9,0-21.5,9.6-21.5,21.5l0,0v292.6c0,3.3,0.8,6.6,2.2,9.6h-66.5c-3.1,0-5.7,2.5-5.7,5.7l0,0v4.6c0,17.6,14.3,31.8,31.8,31.8
	h614.4c17.6,0,31.8-14.2,31.8-31.8l0,0v-4.6C839,388.5,836.5,385.9,833.4,385.9z M437.5,404.1l-5.5-6.3h136.7l-6.1,6.3H437.5z"/>
<path class="st6" d="M260.4,66.4H742c12.8,0,23.3,10.4,23.3,23.3v281.5c0,12.8-10.4,23.3-23.3,23.3H260.4
	c-12.8,0-23.3-10.4-23.3-23.3V89.7C237.1,76.8,247.5,66.4,260.4,66.4z"/>
<rect x="248.2" y="114.2" class="st7" width="504.8" height="268"/>
<circle class="st7" cx="500.6" cy="90.9" r="4.5"/>
<path class="st6" d="M578.5,382.7l-17.3,17.8H438.9l-15.7-17.8H174.3c-3.1,0-5.6,2.5-5.6,5.6v4.5c0,17.2,13.9,31.1,31.1,31.1h600.5
	c17.2,0,31.1-13.9,31.1-31.1v-4.5c0-3.1-2.5-5.6-5.6-5.6H578.5z"/>
<linearGradient id="SVGID_2_" gradientUnits="userSpaceOnUse" x1="380.95" y1="987.6" x2="380.95" y2="653.6" gradientTransform="matrix(1 0 0 1 -82 -530)">
	<stop  offset="0" style="stop-color:#808080;stop-opacity:0.25"/>
	<stop  offset="0.54" style="stop-color:#808080;stop-opacity:0.12"/>
	<stop  offset="1" style="stop-color:#808080;stop-opacity:0.1"/>
</linearGradient>
<path class="st8" d="M405.4,123.6H192.5c-10.8,0-19.5,8.7-19.5,19.5v295c0,10.8,8.8,19.5,19.5,19.5h212.9c10.8,0,19.5-8.7,19.5-19.5
	v-295C424.9,132.4,416.2,123.6,405.4,123.6z"/>
<g>
	<g class="st9">
		<g>
			<path d="M599.8,206.4c-5.4-7.7-14.2-12.2-23.5-12.2c-15.8,0-28.7,12.9-28.7,28.7c0,0.3,0,0.6,0,0.9l-16.9,5.6
				c-8.3-9.5-21.9-12.4-33.4-7l-29-29c6.6-14.4,0.3-31.5-14.1-38.1s-31.5-0.3-38.1,14.1c-6.6,14.4-0.3,31.5,14.1,38.1
				c8.4,3.9,18.1,3.5,26.2-1.1l27.9,27.9c-3.7,6.5-4.7,14.1-2.8,21.3l-18,12c-12.4-10.1-30.6-8.3-40.8,4.1
				c-10.1,12.4-8.3,30.6,4.1,40.8c12.4,10.1,30.6,8.3,40.8-4.1c5.9-7.2,8-16.8,5.6-25.7l18-12c7.5,6.2,17.7,8.1,27,5l8.9,13.2
				c-11.4,11.4-11.4,30,0.1,41.4s30,11.4,41.4-0.1s11.4-30-0.1-41.4c-6.6-6.6-16.1-9.7-25.3-8.2L532.8,265c4.3-5.9,6.1-13.3,5-20.6
				l15.1-5c9.1,13,27,16.1,40,7C605.8,237.3,608.9,219.4,599.8,206.4z M442.4,203.8c-12.3,0-22.3-10-22.3-22.3s10-22.3,22.3-22.3
				s22.3,10,22.3,22.3C464.7,193.8,454.7,203.8,442.4,203.8z M461.7,202.6c1.2-1.1,2.3-2.3,3.3-3.6l34,34c1,1,1,2.5,0,3.5
				c-0.1,0.1-0.2,0.2-0.4,0.3c-1,0.6-2.3,0.5-3.1-0.3L461.7,202.6z M445.6,312.2c-12.3,0-22.3-10-22.3-22.3s10-22.3,22.3-22.3
				s22.3,10,22.3,22.3S457.9,312.2,445.6,312.2z M471,276.5c-0.8-1.5-1.7-2.9-2.8-4.3l15.8-10.5c0.8,1.5,1.7,2.9,2.8,4.3L471,276.5z
				 M512.9,267.7l1.6,2.4c-11.9,2.9-24-4.5-26.8-16.4c-1.2-4.9-0.7-10.1,1.5-14.6l2,2c3.5,3.4,9.1,3.3,12.5-0.2
				c3.3-3.4,3.3-8.8,0-12.3l-1.3-1.3c11.6-4,24.2,2.2,28.2,13.9c0.8,2.3,1.2,4.8,1.2,7.3c0,3.8-0.9,7.5-2.8,10.8l-0.9-1.3
				c-2.8-4.1-8.4-5.2-12.5-2.4C511.4,258.2,510.3,263.6,512.9,267.7z M547.6,286.7c12.3,0,22.3,10,22.3,22.3s-10,22.3-22.3,22.3
				s-22.3-10-22.3-22.3S535.3,286.7,547.6,286.7z M536.7,282.4c-1.6,0.7-3.1,1.5-4.6,2.4l-13.9-20.6c-0.8-1.2-0.4-2.9,0.8-3.7
				c1.2-0.8,2.9-0.4,3.7,0.8L536.7,282.4z M536.2,238.2c-0.4-1.2-0.9-2.3-1.5-3.4l14-4.7c0.3,1.2,0.7,2.4,1.2,3.5L536.2,238.2z
				 M576.3,245.2c-12.3,0-22.3-10-22.3-22.3s10-22.3,22.3-22.3s22.3,10,22.3,22.3C598.6,235.2,588.6,245.2,576.3,245.2z"/>
		</g>
	</g>
	<g>
		<g>
			<path class="st1" d="M599.4,201.8c-5.4-7.7-14.2-12.2-23.5-12.2c-15.8,0-28.7,12.9-28.7,28.7c0,0.3,0,0.6,0,0.9l-16.9,5.6
				c-8.3-9.5-21.9-12.4-33.4-7l-29-29c6.6-14.4,0.3-31.5-14.1-38.1s-31.5-0.3-38.1,14.1c-6.6,14.4-0.3,31.5,14.1,38.1
				c8.4,3.9,18.1,3.5,26.2-1.1l27.9,27.9c-3.7,6.5-4.7,14.1-2.8,21.3l-18,12c-12.4-10.1-30.6-8.3-40.8,4.1
				c-10.1,12.4-8.3,30.6,4.1,40.8c12.4,10.1,30.6,8.3,40.8-4.1c5.9-7.2,8-16.8,5.6-25.7l18-12c7.5,6.2,17.7,8.1,27,5l8.9,13.2
				c-11.4,11.4-11.4,30,0.1,41.4s30,11.4,41.4-0.1s11.4-30-0.1-41.4c-6.6-6.6-16.1-9.7-25.3-8.2l-10.5-15.7c4.3-5.9,6.1-13.3,5-20.6
				l15.1-5c9.1,13,27,16.1,40,7C605.3,232.7,608.5,214.8,599.4,201.8z M441.9,199.2c-12.3,0-22.3-10-22.3-22.3s10-22.3,22.3-22.3
				s22.3,10,22.3,22.3S454.3,199.2,441.9,199.2z M461.2,198c1.2-1.1,2.3-2.3,3.3-3.6l34,34c1,1,1,2.5,0,3.5
				c-0.1,0.1-0.2,0.2-0.4,0.3c-1,0.6-2.3,0.5-3.1-0.3L461.2,198z M445.1,307.6c-12.3,0-22.3-10-22.3-22.3s10-22.3,22.3-22.3
				s22.3,10,22.3,22.3S457.4,307.5,445.1,307.6z M470.5,271.9c-0.8-1.5-1.7-2.9-2.8-4.3l15.8-10.5c0.8,1.5,1.7,2.9,2.8,4.3
				L470.5,271.9z M512.4,263.1l1.6,2.4c-11.9,2.9-24-4.5-26.8-16.4c-1.2-4.9-0.7-10.1,1.5-14.6l2,2c3.5,3.4,9.1,3.3,12.5-0.2
				c3.3-3.4,3.3-8.8,0-12.3l-1.3-1.3c11.6-4,24.2,2.2,28.2,13.9c0.8,2.3,1.2,4.8,1.2,7.3c0,3.8-0.9,7.5-2.8,10.8l-0.9-1.3
				c-2.8-4.1-8.4-5.2-12.5-2.4C511,253.5,509.8,259,512.4,263.1z M547.2,282c12.3,0,22.3,10,22.3,22.3s-10,22.3-22.3,22.3
				s-22.3-10-22.3-22.3S534.8,282,547.2,282z M536.3,277.8c-1.6,0.7-3.1,1.5-4.6,2.4l-13.9-20.6c-0.8-1.2-0.4-2.9,0.8-3.7
				c1.2-0.8,2.9-0.4,3.7,0.8L536.3,277.8z M535.7,233.6c-0.4-1.2-0.9-2.3-1.5-3.4l14-4.7c0.3,1.2,0.7,2.4,1.2,3.5L535.7,233.6z
				 M575.8,240.6c-12.3,0-22.3-10-22.3-22.3s10-22.3,22.3-22.3s22.3,10,22.3,22.3C598.2,230.6,588.2,240.6,575.8,240.6z"/>
		</g>
	</g>
</g>
<path class="st6" d="M195.9,127.6h206c11,0,20,9,20,20v287c0,11-9,20-20,20h-206c-11,0-20-9-20-20v-287
	C175.9,136.6,184.9,127.6,195.9,127.6z"/>
<rect x="188.4" y="158.6" class="st7" width="221" height="265.1"/>
<circle class="st7" cx="297.9" cy="142.6" r="3"/>
<circle class="st7" cx="297.9" cy="438.6" r="9"/>
<linearGradient id="SVGID_3_" gradientUnits="userSpaceOnUse" x1="270.45" y1="1014.6" x2="270.45" y2="753.6" gradientTransform="matrix(1 0 0 1 -82 -530)">
	<stop  offset="0" style="stop-color:#808080;stop-opacity:0.25"/>
	<stop  offset="0.54" style="stop-color:#808080;stop-opacity:0.12"/>
	<stop  offset="1" style="stop-color:#808080;stop-opacity:0.1"/>
</linearGradient>
<path class="st10" d="M243.1,223.6H133.8c-6,0-10.8,4.8-10.8,10.8l0,0v239.4c0,6,4.9,10.8,10.8,10.8l0,0h109.3
	c6,0,10.8-4.8,10.8-10.8l0,0V234.4C253.9,228.5,249.1,223.6,243.1,223.6L243.1,223.6z"/>
<g>
	<g class="st9">
		<g>
			<path d="M355.1,270.1c-3.3-4.7-8.7-7.5-14.4-7.5c-9.7,0-17.5,7.9-17.6,17.6c0,0.2,0,0.4,0,0.5l-10.3,3.4
				c-5.1-5.8-13.4-7.6-20.4-4.3l-17.7-17.7c4.1-8.8,0.2-19.3-8.6-23.3c-8.8-4.1-19.3-0.2-23.3,8.6c-4.1,8.8-0.2,19.3,8.6,23.3
				c5.1,2.4,11.1,2.1,16-0.7l17.1,17.1c-2.3,4-2.9,8.6-1.7,13l-11,7.3c-7.6-6.2-18.7-5.1-24.9,2.5s-5.1,18.7,2.5,24.9
				c7.6,6.2,18.7,5.1,24.9-2.5c3.6-4.4,4.9-10.3,3.4-15.7l11-7.3c4.6,3.8,10.8,4.9,16.5,3.1l5.5,8.1c-7,7-7,18.3,0,25.3
				s18.3,7,25.3,0s7-18.3,0-25.3c-4.1-4.1-9.8-5.9-15.5-5l-6.4-9.6c2.6-3.6,3.7-8.1,3-12.6l9.3-3.1c5.6,7.9,16.5,9.8,24.4,4.3
				C358.8,289,360.7,278,355.1,270.1z M258.8,268.5c-7.5,0-13.6-6.1-13.7-13.7c0-7.5,6.1-13.7,13.7-13.7c7.5,0,13.7,6.1,13.7,13.7
				S266.4,268.5,258.8,268.5z M270.6,267.8c0.7-0.7,1.4-1.4,2-2.2l20.8,20.8c0.6,0.6,0.6,1.5,0,2.1c-0.1,0.1-0.1,0.1-0.2,0.2
				c-0.6,0.4-1.4,0.3-1.9-0.2L270.6,267.8z M260.8,334.8c-7.5,0-13.7-6.1-13.7-13.7s6.1-13.7,13.7-13.7c7.6,0,13.7,6.1,13.7,13.7
				C274.4,328.7,268.3,334.8,260.8,334.8z M276.3,313c-0.5-0.9-1.1-1.8-1.7-2.6l9.6-6.4c0.5,0.9,1.1,1.8,1.7,2.6L276.3,313z
				 M301.9,307.6l1,1.4c-7.3,1.8-14.7-2.7-16.4-10c-0.7-3-0.4-6.1,0.9-8.9l1.2,1.2c2.1,2.1,5.6,2,7.6-0.1s2-5.4,0-7.5l-0.8-0.8
				c7.1-2.4,14.8,1.4,17.2,8.5c0.5,1.4,0.7,2.9,0.7,4.5c0,2.3-0.6,4.6-1.7,6.6l-0.5-0.8c-1.7-2.5-5.1-3.2-7.7-1.5
				C301,301.7,300.3,305.1,301.9,307.6z M323.2,319.2c7.5,0,13.6,6.1,13.7,13.7c0,7.5-6.1,13.7-13.7,13.7s-13.7-6.1-13.7-13.7
				C309.5,325.3,315.6,319.2,323.2,319.2z M316.5,316.6c-1,0.4-1.9,0.9-2.8,1.5l-8.5-12.6c-0.5-0.8-0.3-1.8,0.5-2.2
				c0.8-0.5,1.8-0.3,2.2,0.5L316.5,316.6z M316.2,289.6c-0.3-0.7-0.6-1.4-0.9-2.1l8.5-2.8c0.2,0.7,0.4,1.4,0.7,2.1L316.2,289.6z
				 M340.7,293.8c-7.5,0-13.7-6.1-13.7-13.7s6.1-13.7,13.7-13.7s13.7,6.1,13.7,13.7C354.4,287.7,348.3,293.8,340.7,293.8z"/>
		</g>
	</g>
	<g>
		<g>
			<path class="st1" d="M354.8,267.3c-3.3-4.7-8.7-7.5-14.4-7.5c-9.7,0-17.5,7.9-17.6,17.6c0,0.2,0,0.4,0,0.5l-10.3,3.4
				c-5.1-5.8-13.4-7.6-20.4-4.3l-17.7-17.7c4.1-8.8,0.2-19.3-8.6-23.3c-8.8-4.1-19.3-0.2-23.3,8.6c-4.1,8.8-0.2,19.3,8.6,23.3
				c5.1,2.4,11.1,2.1,16-0.7l17.1,17.1c-2.3,4-2.9,8.6-1.7,13l-11,7.3c-7.6-6.2-18.7-5.1-24.9,2.5s-5.1,18.7,2.5,24.9
				c7.6,6.2,18.7,5.1,24.9-2.5c3.6-4.4,4.9-10.3,3.4-15.7l11-7.3c4.6,3.8,10.8,4.9,16.5,3.1l5.5,8.1c-7,7-7,18.3,0,25.3
				s18.3,7,25.3,0s7-18.3,0-25.3c-4.1-4.1-9.8-5.9-15.5-5l-6.4-9.6c2.6-3.6,3.7-8.1,3-12.6l9.3-3.1c5.6,7.9,16.5,9.8,24.4,4.3
				C358.5,286.2,360.4,275.2,354.8,267.3z M258.5,265.7c-7.5,0-13.6-6.1-13.7-13.7c0-7.5,6.1-13.7,13.7-13.7
				c7.5,0,13.7,6.1,13.7,13.7S266.1,265.7,258.5,265.7z M270.3,265c0.7-0.7,1.4-1.4,2-2.2l20.8,20.8c0.6,0.6,0.6,1.5,0,2.1
				c-0.1,0.1-0.1,0.1-0.2,0.2c-0.6,0.4-1.4,0.3-1.9-0.2L270.3,265z M260.5,332c-7.5,0-13.7-6.1-13.7-13.7c0-7.5,6.1-13.7,13.7-13.7
				c7.6,0,13.7,6.1,13.7,13.7C274.1,325.8,268,332,260.5,332z M276,310.2c-0.5-0.9-1.1-1.8-1.7-2.6l9.6-6.4c0.5,0.9,1.1,1.8,1.7,2.6
				L276,310.2z M301.7,304.8l1,1.4c-7.3,1.8-14.7-2.7-16.4-10c-0.7-3-0.4-6.1,0.9-8.9l1.2,1.2c2.1,2.1,5.6,2,7.6-0.1s2-5.4,0-7.5
				l-0.8-0.8c7.1-2.4,14.8,1.4,17.2,8.5c0.5,1.4,0.7,2.9,0.7,4.5c0,2.3-0.6,4.6-1.7,6.6l-0.5-0.8c-1.7-2.5-5.1-3.2-7.7-1.5
				C300.7,298.9,300,302.3,301.7,304.8z M322.9,316.4c7.5,0,13.6,6.1,13.7,13.7c0,7.5-6.1,13.7-13.7,13.7c-7.5,0-13.7-6.1-13.7-13.7
				C309.2,322.5,315.3,316.4,322.9,316.4z M316.2,313.8c-1,0.4-1.9,0.9-2.8,1.5l-8.5-12.6c-0.5-0.8-0.3-1.8,0.5-2.2
				c0.8-0.5,1.8-0.3,2.2,0.5L316.2,313.8z M315.9,286.7c-0.3-0.7-0.6-1.4-0.9-2.1l8.5-2.8c0.2,0.7,0.4,1.4,0.7,2.1L315.9,286.7z
				 M340.4,291c-7.5,0-13.7-6.1-13.7-13.7c0-7.5,6.1-13.7,13.7-13.7s13.7,6.1,13.7,13.7S348,291,340.4,291z"/>
		</g>
	</g>
</g>
<path class="st6" d="M134.9,225.6h107c6.1,0,11,4.9,11,11v236c0,6.1-4.9,11-11,11h-107c-6.1,0-11-4.9-11-11v-236
	C123.9,230.6,128.9,225.6,134.9,225.6z"/>
<rect x="133.4" y="249.6" class="st7" width="110" height="210"/>
<circle class="st7" cx="175.4" cy="237.6" r="1"/>
<path class="st7" d="M181.4,236.6h20c0.6,0,1,0.4,1,1l0,0c0,0.6-0.4,1-1,1h-20c-0.6,0-1-0.4-1-1l0,0
	C180.4,237.1,180.9,236.6,181.4,236.6z"/>
<circle class="st7" cx="187.9" cy="469.6" r="7"/>
<path class="st11" d="M110.7,502.3c0,0-13.3-45,2.5-78.1c6.7-13.9,8.7-29.5,5.8-44.6c-1.5-7.2-3.6-14.2-6.3-20.9"/>
<path class="st1" d="M122.5,337.6c0,5.5-10,21.5-10,21.5s-10-16-10-21.5s4.5-10,10-10S122.5,332.1,122.5,337.6z"/>
<path class="st1" d="M139,368.2c-3,4.6-20.1,12.6-20.1,12.6s0.3-18.9,3.3-23.5c2.8-4.8,8.9-6.4,13.7-3.6c4.8,2.8,6.4,8.9,3.6,13.7
	C139.3,367.7,139.2,367.9,139,368.2z"/>
<path class="st1" d="M138.2,420.4c-4.9,2.5-23.7,0.8-23.7,0.8s9.8-16.1,14.7-18.6c5-2.3,11,0,13.2,5
	C144.6,412.3,142.8,417.9,138.2,420.4L138.2,420.4z"/>
<path class="st1" d="M128.8,459.8c-4.4,3.3-23.2,4.8-23.2,4.8s6.9-17.5,11.4-20.8c4.6-3.1,10.8-1.8,13.9,2.8
	C133.6,450.8,132.8,456.5,128.8,459.8z"/>
<path class="st1" d="M97.9,381.9c4,3.8,22.4,7.8,22.4,7.8s-4.5-18.3-8.5-22.2c-3.8-4-10.1-4.2-14.1-0.5s-4.2,10.1-0.5,14.1
	C97.5,381.5,97.7,381.7,97.9,381.9L97.9,381.9z"/>
<path class="st1" d="M87.5,428.1c4.9,2.5,23.7,0.8,23.7,0.8s-9.8-16.1-14.7-18.6c-4.8-2.7-10.9-1-13.6,3.8s-1,10.9,3.8,13.6
	C86.9,427.9,87.2,428,87.5,428.1L87.5,428.1z"/>
<path class="st1" d="M83.5,474.4c4.4,3.3,23.2,4.8,23.2,4.8s-6.9-17.5-11.4-20.8c-4.6-3.1-10.8-1.8-13.9,2.8
	C78.6,465.4,79.5,471.1,83.5,474.4z"/>
<linearGradient id="SVGID_4_" gradientUnits="userSpaceOnUse" x1="756.6375" y1="1055.4618" x2="756.6375" y2="737.4718" gradientTransform="matrix(1 0 0 1 -82 -530)">
	<stop  offset="0" style="stop-color:#808080;stop-opacity:0.25"/>
	<stop  offset="0.54" style="stop-color:#808080;stop-opacity:0.12"/>
	<stop  offset="1" style="stop-color:#808080;stop-opacity:0.1"/>
</linearGradient>
<path class="st12" d="M902,359.1c-11.1-13.4-24.5-28.9-22.6-46.7c1.5-14.5-2.1-27.9-1.4-42.4c1-20.6-3.1-36.8-18-50
	c-8.7-7.7-23.2-13.8-27.5-12.3c-8.6,3.1-17.9,1.9-26.7,4c-6.7,1.6-11.1,4-13.9,7c-5.5,5-5.6,12-3.1,19.5
	c-8.7,15.9-2.8,35.9,13.1,44.6c1,0.6,2.1,1.1,3.1,1.5c-6.2,2.6-11.5,8.5-13.6,20.6c-1.4,8.3-3.6,16.4-6.5,24.3
	c-1.3,0.6-2.6,1.1-4,1.6c0.3,0.1,0.6,0.2,0.9,0.3c-0.7,0.3-1.3,0.5-2,0.7c1.2,0.5,2.4,0.8,3.7,1.1c-8,20.2-18,32.7-18,32.7
	s-18.7,4.1-25.9-3.1c0,0,1.2,1.4,2.8,3.5c-7.1-2.9-18.7-7.7-28.7-11.7c-7.2-2.9-9.1,0-9,4c-1.8,0.2-3.5,0.8-5,1.7
	c-2.1-1.4-4.4-2.6-6.7-3.6c-4.1-1-17.6-8.2-31.1,16.5c-7.8,14.4-27.9,40.6-43.4,60c-30,13.8-69.2,31.3-83.7,35.7h-9.3
	c-1.2-2-2.1-3.3-2.1-3.3l-0.7,0.5l-0.3-0.5c0,0-18.3,12.7-36.9,12.8c-2.6,0-5.3-0.4-7.8-1c-8.5-2.2-14.6-3.1-18.9-3
	c-5.1-0.1-8,1.1-9.8,3.4l0,0c-0.2,0.3-0.5,0.6-0.7,0.9l0,0c-0.2,0.3-0.4,0.7-0.5,1l0,0c-0.2,0.4-0.3,0.7-0.5,1.1
	c-0.1,0.7,0.1,1.4,0.6,2c0.2,0.3,0.5,0.7,0.8,1l0.5,0.6c2.3,2.4,6.6,5.6,11.9,9.2c1.5,1,3.2,2.1,4.8,3.2l3.2,2l2.9,1.8l1.2,0.7
	l1.3,0.8l2.3,1.4l1.4,0.8l2.6,1.5l2.1,1.2c5.4,3.2,10.9,6.3,15.8,9.1l3.4,2l0.3,0.2l2.2,1.2l3.8,2.1l2.6,1.4l1.2,0.7l1.3,0.7
	l0.3,0.1l2.3,1.2c0.9,0.2,1.9-0.1,2.7-0.7c0.7-2.8,2.3-8.8,4-9.3c1.7-0.5,9.2-13.5,11.3-22.3h20.2c4-0.3,7.9-0.9,11.8-1.8
	c-5.2,3.7-10.4,6.1-14.4,5.1c-8.5-2.1-16.5,3.1-17.4,8.2c0,0.1-0.1,0.2-0.1,0.3s0,0.2-0.1,0.3s-0.1,0.3-0.1,0.4s0,0.2,0,0.3
	s0,0.3,0,0.4s0,0.2,0,0.3s0,0.3,0,0.4s0,0.2,0,0.3s0.1,0.3,0.1,0.4s0,0.2,0.1,0.3c0.1,0.2,0.1,0.4,0.2,0.5v0.1
	c0.1,0.2,0.2,0.4,0.4,0.6l0.2,0.2c0.1,0.1,0.2,0.3,0.3,0.4l0.2,0.2c0.1,0.1,0.3,0.2,0.4,0.4l0.3,0.2l0.5,0.3l0.3,0.2l0.5,0.3
	l0.4,0.2l0.7,0.3l0.3,0.2c0.4,0.2,0.7,0.3,1.2,0.4c0.7,0.2,1.4,0.4,2.3,0.7l0.9,0.2l1.3,0.3l0.7,0.2c0.9,0.2,1.8,0.4,2.8,0.6
	l1.3,0.3l1.1,0.2l2.5,0.4c1.6,0.3,3.2,0.5,5,0.8l4.4,0.7l5.7,0.8l1.3,0.2l2,0.3l2.9,0.4l2,0.3l0,0l5.2,0.7l1.6,0.2l3.3,0.4
	c4.3,0.5,8.5,1,12.3,1.4l4.4,0.5l2.2,0.3l1,0.1l2.7,0.3l1.5,0.2l1.8,0.2l2.6,0.3h0.3l1.7,0.2l0,0c0.8,0.1,1.6-0.5,1.7-1.3v-0.1l0,0
	l0,0c0,0,0-0.1,0-0.2c0.2-0.2,0.2-0.5,0.2-0.8c0-2.5,0.4-4.9,0.9-7.3c0.1-0.4,0.2-0.8,0.4-1.3l0.2-0.5c0.2-0.5,0.4-1,0.6-1.5
	c0.2-0.4,0.3-0.8,0.4-1.1c0-0.1,0.1-0.2,0.1-0.4s0.1-0.4,0.1-0.6c2.1-7.1-0.4-20.4-1.2-25.6c-0.2-1.7-0.6-3.3-1.1-4.9
	c0.1,0,0.3,0,0.4,0c1.1-0.4,2.1-0.9,3-1.6c15.3-5.5,28.2-11.7,32.2-17.9c6.6-1.7,13.6-1,19.7,2.1c7.9,3.9,67.8,23.5,95.6,32.5
	c5,4.3,8.9,6.8,11.1,6.6c0,0,35.5,5.7,49.7-5.5c1.3,0.9,2.1,1.3,2.1,1.3s20.7-10.3,23.8-23.7c1-4.3,1.9-10.7,2.8-17.8
	c4.8-4.8,7.5-11.4,7.5-18.2c0.7-22.5,9.4-48.2,15.8-71c7.8,0.6,10.9-0.9,18.1-4.4l-0.3-0.4C901.1,359.5,901.6,359.3,902,359.1z
	 M783.2,392.8l-4-1.3c1.3-1.8,2.5-3.7,3.5-5.7L783.2,392.8z M760.9,402.2l24,14.4l0.2,2.9c-0.3,2.2-0.2,4.5,0.2,6.7
	C774.8,416.9,762.4,405.5,760.9,402.2L760.9,402.2z M751.1,381.2c-2.6-1.1-4.8-2.1-6.3-2.9c2,0.1,3.9,0.3,5.6,0.3
	C750.7,379.5,751,380.4,751.1,381.2L751.1,381.2z M686.8,404.7c0,0,4.1-9.3,13.5,6.2c1.5,2.4,4.1,6.2,7.7,11l-27.2-3.6
	C684,413.2,686.2,408.6,686.8,404.7L686.8,404.7z"/>
<path class="st13" d="M746.5,367.5c0,0-19-8-34-14s-6,14-6,14s25,7,25,8s21,2,21,2L746.5,367.5z"/>
<path class="st14" d="M746.5,367.5c0,0-19-8-34-14s-6,14-6,14s25,7,25,8s21,2,21,2L746.5,367.5z"/>
<path class="st15" d="M827.5,288.5c0,0-34-18-40,17s-25,59-25,59s-18,4-25-3c0,0,17,20,9,22c0,0,18,13,26,9s14-31,17-38
	S803.5,286.5,827.5,288.5z"/>
<path class="st16" d="M827.5,288.5c0,0-34-18-40,17s-25,59-25,59s-18,4-25-3c0,0,17,20,9,22c0,0,18,13,26,9s14-31,17-38
	S803.5,286.5,827.5,288.5z"/>
<path class="st13" d="M808.5,276.5c0,0,21,24,22,44s24-21,26-22s-20-35-22-46S808.5,276.5,808.5,276.5z"/>
<polygon class="st13" points="823,286.8 809.8,298.8 816,324 833,308 831,292 "/>
<polygon class="st13" points="546.5,464.5 523.5,464.5 532.5,486.5 554.5,480.5 "/>
<path class="st9" d="M528.8,461.3c0,0-23.8,16.6-44.2,11.4s-25.9-3.2-28.3,3.4c-2.2,6.1,56.8,38.5,66.3,43.7
	c0.5,0.3,1.2,0.1,1.5-0.4c0-0.1,0.1-0.2,0.1-0.3c0.6-2.7,2.2-8.5,3.8-9c2.2-0.6,12-19,11.5-26.2S528.8,461.3,528.8,461.3z"/>
<path class="st17" d="M527.8,461.3c0,0-23.8,16.6-44.2,11.4s-25.9-3.2-28.3,3.4c-2.2,6.1,56.8,38.5,66.3,43.7
	c0.5,0.3,1.2,0.1,1.5-0.4c0-0.1,0.1-0.2,0.1-0.3c0.6-2.7,2.2-8.5,3.8-9c2.2-0.6,12-19,11.5-26.2S527.8,461.3,527.8,461.3z"/>
<path class="st18" d="M724.5,421.5l-67-9c0,0-109,52-122,53l3,23h20c8,0,86-17,97-34c6.4-1.7,13.1-1,19,2c10,5,106,36,106,36
	L724.5,421.5z"/>
<path class="st17" d="M724.5,421.5l-67-9c0,0-109,52-122,53l3,23h20c8,0,86-17,97-34c6.4-1.7,13.1-1,19,2c10,5,106,36,106,36
	L724.5,421.5z"/>
<polygon class="st13" points="605.5,452.5 594.5,466.5 605.5,472.5 621.5,460.5 "/>
<path class="st4" d="M796.5,436.5c0,0-36-30.8-38.5-36.4s-61.5-43.6-65.5-44.6s-17-8-30,16s-61,82-61,82s15,21,20,20s61-48,65-71
	c0,0,4-9,13,6s67,87,78,86c0,0,43,7,52-10S796.5,436.5,796.5,436.5z"/>
<path class="st19" d="M817,290c0,0-12.5,5.5-13.5,28.5s-23,62-23,62l2,46c0,0,24,24,26,39s19,25,19,25s20-10,23-23s5-45,10-57
	s2-87,2-87l-15-26l-8-9l-21,24C818.5,312.5,807,297,817,290z"/>
<path class="st9" d="M787.5,411.5c0,0-3-36,6-44l18-51c0,0,6.5-24.5,5.5-26.5s-23.5,19.5-23.5,19.5l-15,53l4,56L787.5,411.5z"/>
<path class="st15" d="M786.5,411.5c0,0-3-36,6-44l18-51c0,0,7-25,6-27s-24,20-24,20l-15,53l4,56L786.5,411.5z"/>
<path class="st13" d="M793.5,395.5c0,0-50-16-53-20s-35-30-46-12s41,23,41,23l53,32L793.5,395.5z"/>
<path class="st9" d="M607.7,466.4l-14.8-2.7c0,0-24.2,31-36.9,27.9s-24.3,10.4-10.9,14.8c12,3.9,64.1,9.5,74,10.5
	c0.8,0.1,1.5-0.5,1.6-1.3v-0.1c0.1-3.9,0.9-7.7,2.3-11.3c2.7-6.5,0-20.6-0.7-26c-0.4-3.2-1.4-6.2-2.9-9L607.7,466.4z"/>
<path class="st17" d="M607.4,467.4l-14.8-2.7c0,0-24.2,31-36.8,27.9s-24.3,10.4-10.9,14.8c12,3.9,64.1,9.5,74,10.5
	c0.8,0.1,1.5-0.5,1.6-1.3v-0.1c0-3.9,0.8-7.7,2.2-11.3c2.7-6.5,0-20.6-0.7-26c-0.4-3.2-1.4-6.2-2.9-9L607.4,467.4z"/>
<circle class="st9" cx="816" cy="256" r="32"/>
<circle class="st13" cx="813" cy="256" r="32"/>
<path class="st15" d="M844.5,287.5c0,0,38,13,38,40s-21,70-22,105s-56,30-56,30s-8-118,0-127S848.5,291.5,844.5,287.5z"/>
<path class="st9" d="M837.5,343.5c0,0-14,62-47,51c0,0-17,25-5,36c0,0,29,7,48-12s33-26,36-49s5-55-5-52S837.5,343.5,837.5,343.5z"
	/>
<path class="st15" d="M838.5,342.5c0,0-14,62-47,51c0,0-17,25-5,36c0,0,29,7,48-12s33-26,36-49s5-55-5-52S838.5,342.5,838.5,342.5z"
	/>
<path class="st19" d="M623.5,502c0,0.1-0.1,0.2-0.1,0.3c-0.7,1.7-1.2,3.5-1.6,5.3c0.2-0.8,0.5-1.6,0.8-2.4
	C623.1,504.2,623.4,503.1,623.5,502z"/>
<path class="st19" d="M545.6,504.5c-4.1-1.3-5.8-3.6-5.9-5.9c-1.7,3.3-0.6,6.9,5.2,8.8c12,3.9,64.1,9.5,74,10.5
	c0.8,0.1,1.5-0.5,1.6-1.3v-0.1l0,0c0-0.8-0.6-1.4-1.3-1.5C608.3,513.8,557.5,508.4,545.6,504.5z"/>
<path class="st19" d="M456.8,474.4c0.3-0.7,0.6-1.4,1-2.1c-1.1,1.1-1.9,2.4-2.3,3.9c-2.2,6.1,56.8,38.5,66.3,43.7
	c0.5,0.3,1.2,0.1,1.5-0.4c0-0.1,0.1-0.2,0.1-0.3l0,0c0.1-0.5-0.1-1-0.5-1.2C512.3,512.3,454.6,480.5,456.8,474.4z"/>
<path class="st19" d="M528.4,508.4c-0.5,0.1-1,0.8-1.5,1.8l0.2-0.1c0.4-0.1,1.2-1,2.1-2.3C529,508.1,528.7,508.3,528.4,508.4z"/>
<path class="st9" d="M808.6,284.2c-2.8,6.2-3.4,13.2-5.5,19.8c-4.1,12.9-14.4,23.6-26.8,27.8c10.4,4.1,22.7-0.9,30.7-9.3
	s12.7-19.6,17.3-30.5c11.7,7.8,10.2,25.9,14.2,39.9c3.4,12.4,12,22.6,23.5,28.2c11.5,5.2,24.8,4.9,36.1-0.7
	c-10.7-13-25.9-30.9-24.1-48.3c1.5-14.1-8.6-24.8-7.9-38.9c1-20-6.7-30.2-21-43c-8.4-7.5,4.8-18.1-6-15c-4.3,1.2-8.7-3.3-12.9-1.8
	c-8.3,3-17.3,1.8-25.8,3.8C756.1,226.4,812.7,275.1,808.6,284.2z"/>
<path class="st17" d="M809.6,283.2c-2.8,6.2-3.4,13.2-5.5,19.8c-4.1,12.9-14.4,23.6-26.8,27.8c10.4,4.1,22.7-0.9,30.7-9.3
	s12.7-19.6,17.3-30.5c11.7,7.8,10.2,25.9,14.2,39.9c3.4,12.4,12,22.6,23.5,28.2c11.5,5.2,24.8,4.9,36.1-0.7
	c-10.7-13-24.9-27.9-23.1-45.3c1.5-14.1-0.7-28.5,0-42.6c1-20-8.8-39.3-23.2-52.2c-8.4-7.5-21.5-8.5-25.7-7
	c-8.3,3-17.3,1.8-25.8,3.8C757.1,225.4,813.7,274.1,809.6,283.2z"/>
<g>
	<g class="st9">
		<g>
			<path d="M215.5,339.8c-1.6-2.2-4.1-3.5-6.8-3.5c-4.6,0-8.3,3.7-8.3,8.3c0,0.1,0,0.2,0,0.3l-4.9,1.6c-2.4-2.8-6.4-3.6-9.7-2
				l-8.4-8.4c1.9-4.2,0.1-9.1-4.1-11.1c-4.2-1.9-9.1-0.1-11.1,4.1c-1.9,4.2-0.1,9.1,4.1,11.1c2.4,1.1,5.3,1,7.6-0.3l8.1,8.1
				c-1.1,1.9-1.4,4.1-0.8,6.2l-5.2,3.5c-3.6-2.9-8.9-2.4-11.8,1.2c-2.9,3.6-2.4,8.9,1.2,11.8s8.9,2.4,11.8-1.2
				c1.7-2.1,2.3-4.9,1.6-7.5l5.2-3.5c2.2,1.8,5.1,2.3,7.8,1.5l2.6,3.8c-3.3,3.3-3.3,8.7,0,12s8.7,3.3,12,0s3.3-8.7,0-12
				c-1.9-1.9-4.7-2.8-7.4-2.4l-3-4.6c1.2-1.7,1.8-3.9,1.4-6l4.4-1.5c2.6,3.8,7.8,4.7,11.6,2C217.2,348.8,218.1,343.6,215.5,339.8z
				 M169.7,339.1c-3.6,0-6.5-2.9-6.5-6.5s2.9-6.5,6.5-6.5s6.5,2.9,6.5,6.5S173.3,339.1,169.7,339.1z M175.3,338.7
				c0.4-0.3,0.7-0.7,1-1l9.9,9.9c0.3,0.3,0.3,0.7,0,1l-0.1,0.1c-0.3,0.2-0.7,0.1-0.9-0.1L175.3,338.7z M170.7,370.6
				c-3.6,0-6.5-2.9-6.5-6.5s2.9-6.5,6.5-6.5s6.5,2.9,6.5,6.5C177.1,367.6,174.2,370.5,170.7,370.6z M178,360.2
				c-0.2-0.4-0.5-0.9-0.8-1.2l4.6-3.1c0.2,0.4,0.5,0.9,0.8,1.2L178,360.2z M190.2,357.6l0.5,0.7c-3.5,0.8-7-1.3-7.8-4.8
				c-0.3-1.4-0.2-2.9,0.4-4.2l0.6,0.6c1,1,2.6,1,3.6-0.1c1-1,1-2.6,0-3.6l-0.4-0.4c3.4-1.2,7,0.7,8.2,4c0.2,0.7,0.3,1.4,0.3,2.1
				c0,1.1-0.3,2.2-0.8,3.1l-0.3-0.4c-0.8-1.2-2.4-1.5-3.6-0.7C189.8,354.9,189.5,356.4,190.2,357.6z M200.3,363.1
				c3.6,0,6.5,2.9,6.5,6.5s-2.9,6.5-6.5,6.5s-6.5-2.9-6.5-6.5S196.7,363.1,200.3,363.1z M197.1,361.9c-0.5,0.2-0.9,0.4-1.3,0.7l-4-6
				c-0.2-0.4-0.1-0.8,0.2-1.1c0.4-0.2,0.8-0.1,1.1,0.2L197.1,361.9z M197,349.1c-0.1-0.3-0.3-0.7-0.4-1l4.1-1.4
				c0.1,0.3,0.2,0.7,0.3,1L197,349.1z M208.6,351.1c-3.6,0-6.5-2.9-6.5-6.5s2.9-6.5,6.5-6.5s6.5,2.9,6.5,6.5
				S212.2,351.1,208.6,351.1z"/>
		</g>
	</g>
	<g>
		<g>
			<path class="st1" d="M215.3,338.5c-1.6-2.2-4.1-3.5-6.8-3.5c-4.6,0-8.3,3.7-8.3,8.3c0,0.1,0,0.2,0,0.3l-4.9,1.6
				c-2.4-2.8-6.4-3.6-9.7-2l-8.4-8.4c1.9-4.2,0.1-9.1-4.1-11.1c-4.2-1.9-9.1-0.1-11.1,4.1s-0.1,9.1,4.1,11.1c2.4,1.1,5.3,1,7.6-0.3
				l8.1,8.1c-1.1,1.9-1.4,4.1-0.8,6.2l-5.2,3.5c-3.6-2.9-8.9-2.4-11.8,1.2c-2.9,3.6-2.4,8.9,1.2,11.8c3.6,2.9,8.9,2.4,11.8-1.2
				c1.7-2.1,2.3-4.9,1.6-7.5l5.2-3.5c2.2,1.8,5.1,2.3,7.8,1.5l2.6,3.8c-3.3,3.3-3.3,8.7,0,12s8.7,3.3,12,0s3.3-8.7,0-12
				c-1.9-1.9-4.7-2.8-7.4-2.4l-3-4.6c1.2-1.7,1.8-3.9,1.4-6l4.4-1.5c2.6,3.8,7.8,4.7,11.6,2C217.1,347.4,218,342.2,215.3,338.5z
				 M169.6,337.7c-3.6,0-6.5-2.9-6.5-6.5s2.9-6.5,6.5-6.5s6.5,2.9,6.5,6.5S173.2,337.7,169.6,337.7z M175.2,337.4
				c0.4-0.3,0.7-0.7,1-1l9.9,9.9c0.3,0.3,0.3,0.7,0,1l-0.1,0.1c-0.3,0.2-0.7,0.1-0.9-0.1L175.2,337.4z M170.5,369.2
				c-3.6,0-6.5-2.9-6.5-6.5s2.9-6.5,6.5-6.5s6.5,2.9,6.5,6.5C177,366.3,174.1,369.2,170.5,369.2z M177.9,358.9
				c-0.2-0.4-0.5-0.9-0.8-1.2l4.6-3.1c0.2,0.4,0.5,0.9,0.8,1.2L177.9,358.9z M190.1,356.3l0.5,0.7c-3.5,0.8-7-1.3-7.8-4.8
				c-0.3-1.4-0.2-2.9,0.4-4.2l0.6,0.6c1,1,2.6,1,3.6-0.1c1-1,1-2.6,0-3.6l-0.4-0.4c3.4-1.2,7,0.7,8.2,4c0.2,0.7,0.3,1.4,0.3,2.1
				c0,1.1-0.3,2.2-0.8,3.1l-0.3-0.4c-0.8-1.2-2.4-1.5-3.6-0.7C189.6,353.5,189.3,355.1,190.1,356.3z M200.2,361.8
				c3.6,0,6.5,2.9,6.5,6.5s-2.9,6.5-6.5,6.5s-6.5-2.9-6.5-6.5S196.6,361.8,200.2,361.8z M197,360.6c-0.5,0.2-0.9,0.4-1.3,0.7l-4-6
				c-0.2-0.4-0.1-0.8,0.2-1.1c0.4-0.2,0.8-0.1,1.1,0.2L197,360.6z M196.8,347.7c-0.1-0.3-0.3-0.7-0.4-1l4.1-1.4
				c0.1,0.3,0.2,0.7,0.3,1L196.8,347.7z M208.5,349.8c-3.6,0-6.5-2.9-6.5-6.5s2.9-6.5,6.5-6.5s6.5,2.9,6.5,6.5
				S212.1,349.8,208.5,349.8z"/>
		</g>
	</g>
</g>
</svg>
